<svg width="239" height="51" viewBox="0 0 239 51" fill="none" xmlns="http://www.w3.org/2000/svg">
<path d="M74.4953 15.58H83.4353C84.3753 15.58 85.2553 15.68 86.0753 15.88C86.8953 16.06 87.6153 16.37 88.2353 16.81C88.8553 17.23 89.3353 17.79 89.6753 18.49C90.0353 19.19 90.2153 20.06 90.2153 21.1C90.2153 22.54 89.8053 23.76 88.9853 24.76C88.1853 25.74 87.0653 26.35 85.6253 26.59V26.65C86.6053 26.77 87.3753 27.03 87.9353 27.43C88.5153 27.83 88.9453 28.32 89.2253 28.9C89.5053 29.48 89.6853 30.12 89.7653 30.82C89.8453 31.52 89.8853 32.22 89.8853 32.92C89.8853 33.34 89.8853 33.75 89.8853 34.15C89.8853 34.55 89.9053 34.93 89.9453 35.29C89.9853 35.63 90.0453 35.95 90.1253 36.25C90.2253 36.55 90.3553 36.8 90.5153 37H89.0453C88.7653 36.5 88.6053 35.92 88.5653 35.26C88.5453 34.58 88.5353 33.88 88.5353 33.16C88.5353 32.44 88.5053 31.73 88.4453 31.03C88.3853 30.31 88.1953 29.67 87.8753 29.11C87.5553 28.55 87.0453 28.1 86.3453 27.76C85.6653 27.42 84.6953 27.25 83.4353 27.25H75.8153V37H74.4953V15.58ZM83.4353 26.11C84.2153 26.11 84.9353 26.02 85.5953 25.84C86.2753 25.64 86.8553 25.34 87.3353 24.94C87.8153 24.54 88.1953 24.03 88.4753 23.41C88.7553 22.79 88.8953 22.05 88.8953 21.19C88.8953 20.39 88.7453 19.71 88.4453 19.15C88.1453 18.57 87.7453 18.1 87.2453 17.74C86.7453 17.38 86.1653 17.12 85.5053 16.96C84.8453 16.8 84.1553 16.72 83.4353 16.72H75.8153V26.11H83.4353ZM92.4618 29.29C92.4618 28.19 92.6118 27.16 92.9118 26.2C93.2318 25.22 93.6918 24.36 94.2918 23.62C94.8918 22.88 95.6318 22.3 96.5118 21.88C97.3918 21.44 98.4018 21.22 99.5418 21.22C100.682 21.22 101.692 21.44 102.572 21.88C103.452 22.3 104.192 22.88 104.792 23.62C105.392 24.36 105.842 25.22 106.142 26.2C106.462 27.16 106.622 28.19 106.622 29.29C106.622 30.39 106.462 31.43 106.142 32.41C105.842 33.39 105.392 34.25 104.792 34.99C104.192 35.71 103.452 36.29 102.572 36.73C101.692 37.15 100.682 37.36 99.5418 37.36C98.4018 37.36 97.3918 37.15 96.5118 36.73C95.6318 36.29 94.8918 35.71 94.2918 34.99C93.6918 34.25 93.2318 33.39 92.9118 32.41C92.6118 31.43 92.4618 30.39 92.4618 29.29ZM93.6018 29.29C93.6018 30.21 93.7318 31.1 93.9918 31.96C94.2518 32.8 94.6318 33.55 95.1318 34.21C95.6318 34.87 96.2518 35.4 96.9918 35.8C97.7318 36.18 98.5818 36.37 99.5418 36.37C100.502 36.37 101.352 36.18 102.092 35.8C102.832 35.4 103.452 34.87 103.952 34.21C104.452 33.55 104.832 32.8 105.092 31.96C105.352 31.1 105.482 30.21 105.482 29.29C105.482 28.37 105.352 27.49 105.092 26.65C104.832 25.79 104.452 25.03 103.952 24.37C103.452 23.71 102.832 23.19 102.092 22.81C101.352 22.41 100.502 22.21 99.5418 22.21C98.5818 22.21 97.7318 22.41 96.9918 22.81C96.2518 23.19 95.6318 23.71 95.1318 24.37C94.6318 25.03 94.2518 25.79 93.9918 26.65C93.7318 27.49 93.6018 28.37 93.6018 29.29ZM120.905 26.35C120.845 25.67 120.665 25.07 120.365 24.55C120.085 24.03 119.715 23.6 119.255 23.26C118.795 22.92 118.255 22.66 117.635 22.48C117.035 22.3 116.385 22.21 115.685 22.21C114.725 22.21 113.875 22.41 113.135 22.81C112.395 23.19 111.775 23.71 111.275 24.37C110.775 25.01 110.395 25.75 110.135 26.59C109.875 27.41 109.745 28.26 109.745 29.14C109.745 30.18 109.865 31.14 110.105 32.02C110.345 32.9 110.715 33.67 111.215 34.33C111.715 34.97 112.335 35.47 113.075 35.83C113.815 36.19 114.685 36.37 115.685 36.37C116.405 36.37 117.065 36.25 117.665 36.01C118.285 35.77 118.825 35.44 119.285 35.02C119.765 34.6 120.155 34.1 120.455 33.52C120.755 32.92 120.955 32.27 121.055 31.57H122.195C122.075 32.49 121.825 33.31 121.445 34.03C121.065 34.75 120.585 35.36 120.005 35.86C119.425 36.34 118.765 36.71 118.025 36.97C117.285 37.23 116.505 37.36 115.685 37.36C114.425 37.36 113.345 37.14 112.445 36.7C111.565 36.24 110.835 35.63 110.255 34.87C109.695 34.11 109.275 33.24 108.995 32.26C108.735 31.26 108.605 30.22 108.605 29.14C108.605 28.06 108.755 27.04 109.055 26.08C109.375 25.12 109.835 24.28 110.435 23.56C111.035 22.84 111.775 22.27 112.655 21.85C113.535 21.43 114.545 21.22 115.685 21.22C116.525 21.22 117.305 21.33 118.025 21.55C118.765 21.75 119.415 22.06 119.975 22.48C120.555 22.9 121.025 23.44 121.385 24.1C121.745 24.74 121.965 25.49 122.045 26.35H120.905ZM125.122 37V21.58H126.262V37H125.122ZM128.542 15.1H130.072L126.052 19.3H124.942L128.542 15.1ZM129.171 29.29C129.171 28.19 129.321 27.16 129.621 26.2C129.941 25.22 130.401 24.36 131.001 23.62C131.601 22.88 132.341 22.3 133.221 21.88C134.101 21.44 135.111 21.22 136.251 21.22C137.391 21.22 138.401 21.44 139.281 21.88C140.161 22.3 140.901 22.88 141.501 23.62C142.101 24.36 142.551 25.22 142.851 26.2C143.171 27.16 143.331 28.19 143.331 29.29C143.331 30.39 143.171 31.43 142.851 32.41C142.551 33.39 142.101 34.25 141.501 34.99C140.901 35.71 140.161 36.29 139.281 36.73C138.401 37.15 137.391 37.36 136.251 37.36C135.111 37.36 134.101 37.15 133.221 36.73C132.341 36.29 131.601 35.71 131.001 34.99C130.401 34.25 129.941 33.39 129.621 32.41C129.321 31.43 129.171 30.39 129.171 29.29ZM130.311 29.29C130.311 30.21 130.441 31.1 130.701 31.96C130.961 32.8 131.341 33.55 131.841 34.21C132.341 34.87 132.961 35.4 133.701 35.8C134.441 36.18 135.291 36.37 136.251 36.37C137.211 36.37 138.061 36.18 138.801 35.8C139.541 35.4 140.161 34.87 140.661 34.21C141.161 33.55 141.541 32.8 141.801 31.96C142.061 31.1 142.191 30.21 142.191 29.29C142.191 28.37 142.061 27.49 141.801 26.65C141.541 25.79 141.161 25.03 140.661 24.37C140.161 23.71 139.541 23.19 138.801 22.81C138.061 22.41 137.211 22.21 136.251 22.21C135.291 22.21 134.441 22.41 133.701 22.81C132.961 23.19 132.341 23.71 131.841 24.37C131.341 25.03 130.961 25.79 130.701 26.65C130.441 27.49 130.311 28.37 130.311 29.29ZM160.924 15.58H162.364L170.824 37H169.414L166.714 30.13H156.454L153.724 37H152.314L160.924 15.58ZM166.294 28.99L161.704 16.87H161.644L156.874 28.99H166.294ZM173.547 15.58V37H172.407V15.58H173.547ZM176.456 29.29C176.456 28.19 176.606 27.16 176.906 26.2C177.226 25.22 177.686 24.36 178.286 23.62C178.886 22.88 179.626 22.3 180.506 21.88C181.386 21.44 182.396 21.22 183.536 21.22C184.676 21.22 185.686 21.44 186.566 21.88C187.446 22.3 188.186 22.88 188.786 23.62C189.386 24.36 189.836 25.22 190.136 26.2C190.456 27.16 190.616 28.19 190.616 29.29C190.616 30.39 190.456 31.43 190.136 32.41C189.836 33.39 189.386 34.25 188.786 34.99C188.186 35.71 187.446 36.29 186.566 36.73C185.686 37.15 184.676 37.36 183.536 37.36C182.396 37.36 181.386 37.15 180.506 36.73C179.626 36.29 178.886 35.71 178.286 34.99C177.686 34.25 177.226 33.39 176.906 32.41C176.606 31.43 176.456 30.39 176.456 29.29ZM177.596 29.29C177.596 30.21 177.726 31.1 177.986 31.96C178.246 32.8 178.626 33.55 179.126 34.21C179.626 34.87 180.246 35.4 180.986 35.8C181.726 36.18 182.576 36.37 183.536 36.37C184.496 36.37 185.346 36.18 186.086 35.8C186.826 35.4 187.446 34.87 187.946 34.21C188.446 33.55 188.826 32.8 189.086 31.96C189.346 31.1 189.476 30.21 189.476 29.29C189.476 28.37 189.346 27.49 189.086 26.65C188.826 25.79 188.446 25.03 187.946 24.37C187.446 23.71 186.826 23.19 186.086 22.81C185.346 22.41 184.496 22.21 183.536 22.21C182.576 22.21 181.726 22.41 180.986 22.81C180.246 23.19 179.626 23.71 179.126 24.37C178.626 25.03 178.246 25.79 177.986 26.65C177.726 27.49 177.596 28.37 177.596 29.29ZM193.289 21.58H194.429V24.88H194.489C194.689 24.3 194.969 23.79 195.329 23.35C195.709 22.89 196.139 22.5 196.619 22.18C197.119 21.86 197.659 21.62 198.239 21.46C198.819 21.3 199.409 21.22 200.009 21.22C200.909 21.22 201.669 21.33 202.289 21.55C202.929 21.77 203.449 22.06 203.849 22.42C204.249 22.78 204.559 23.19 204.779 23.65C205.019 24.09 205.189 24.54 205.289 25C205.389 25.46 205.449 25.91 205.469 26.35C205.489 26.77 205.499 27.14 205.499 27.46V37H204.359V27.25C204.359 26.87 204.329 26.39 204.269 25.81C204.209 25.23 204.029 24.68 203.729 24.16C203.449 23.62 203.009 23.16 202.409 22.78C201.829 22.4 201.019 22.21 199.979 22.21C199.099 22.21 198.319 22.37 197.639 22.69C196.959 23.01 196.379 23.46 195.899 24.04C195.419 24.6 195.049 25.28 194.789 26.08C194.549 26.86 194.429 27.72 194.429 28.66V37H193.289V21.58ZM209.386 31.87C209.426 32.59 209.586 33.23 209.866 33.79C210.146 34.33 210.506 34.8 210.946 35.2C211.406 35.58 211.936 35.87 212.536 36.07C213.136 36.27 213.786 36.37 214.486 36.37C214.986 36.37 215.516 36.33 216.076 36.25C216.656 36.15 217.186 35.98 217.666 35.74C218.166 35.5 218.576 35.17 218.896 34.75C219.216 34.31 219.376 33.76 219.376 33.1C219.376 32.24 219.116 31.59 218.596 31.15C218.076 30.71 217.416 30.37 216.616 30.13C215.836 29.89 214.986 29.7 214.066 29.56C213.166 29.4 212.316 29.17 211.516 28.87C210.736 28.57 210.086 28.15 209.566 27.61C209.046 27.05 208.786 26.24 208.786 25.18C208.786 24.42 208.956 23.79 209.296 23.29C209.636 22.77 210.066 22.36 210.586 22.06C211.126 21.76 211.726 21.55 212.386 21.43C213.046 21.29 213.706 21.22 214.366 21.22C215.166 21.22 215.916 21.31 216.616 21.49C217.316 21.67 217.916 21.96 218.416 22.36C218.936 22.76 219.336 23.27 219.616 23.89C219.916 24.51 220.066 25.26 220.066 26.14H218.926C218.926 25.44 218.806 24.84 218.566 24.34C218.346 23.84 218.026 23.44 217.606 23.14C217.206 22.82 216.726 22.59 216.166 22.45C215.606 22.29 215.006 22.21 214.366 22.21C213.846 22.21 213.316 22.26 212.776 22.36C212.256 22.46 211.786 22.63 211.366 22.87C210.946 23.11 210.596 23.42 210.316 23.8C210.056 24.18 209.926 24.64 209.926 25.18C209.926 25.8 210.076 26.3 210.376 26.68C210.676 27.06 211.066 27.37 211.546 27.61C212.046 27.83 212.596 28.01 213.196 28.15C213.816 28.29 214.436 28.43 215.056 28.57C215.816 28.71 216.526 28.88 217.186 29.08C217.866 29.26 218.446 29.52 218.926 29.86C219.426 30.18 219.816 30.6 220.096 31.12C220.376 31.64 220.516 32.3 220.516 33.1C220.516 33.94 220.326 34.63 219.946 35.17C219.566 35.71 219.086 36.15 218.506 36.49C217.926 36.81 217.276 37.03 216.556 37.15C215.856 37.29 215.166 37.36 214.486 37.36C213.606 37.36 212.786 37.24 212.026 37C211.286 36.78 210.636 36.44 210.076 35.98C209.516 35.5 209.076 34.92 208.756 34.24C208.436 33.56 208.266 32.77 208.246 31.87H209.386ZM222.569 29.29C222.569 28.19 222.719 27.16 223.019 26.2C223.339 25.22 223.799 24.36 224.399 23.62C224.999 22.88 225.739 22.3 226.619 21.88C227.499 21.44 228.509 21.22 229.649 21.22C230.789 21.22 231.799 21.44 232.679 21.88C233.559 22.3 234.299 22.88 234.899 23.62C235.499 24.36 235.949 25.22 236.249 26.2C236.569 27.16 236.729 28.19 236.729 29.29C236.729 30.39 236.569 31.43 236.249 32.41C235.949 33.39 235.499 34.25 234.899 34.99C234.299 35.71 233.559 36.29 232.679 36.73C231.799 37.15 230.789 37.36 229.649 37.36C228.509 37.36 227.499 37.15 226.619 36.73C225.739 36.29 224.999 35.71 224.399 34.99C223.799 34.25 223.339 33.39 223.019 32.41C222.719 31.43 222.569 30.39 222.569 29.29ZM223.709 29.29C223.709 30.21 223.839 31.1 224.099 31.96C224.359 32.8 224.739 33.55 225.239 34.21C225.739 34.87 226.359 35.4 227.099 35.8C227.839 36.18 228.689 36.37 229.649 36.37C230.609 36.37 231.459 36.18 232.199 35.8C232.939 35.4 233.559 34.87 234.059 34.21C234.559 33.55 234.939 32.8 235.199 31.96C235.459 31.1 235.589 30.21 235.589 29.29C235.589 28.37 235.459 27.49 235.199 26.65C234.939 25.79 234.559 25.03 234.059 24.37C233.559 23.71 232.939 23.19 232.199 22.81C231.459 22.41 230.609 22.21 229.649 22.21C228.689 22.21 227.839 22.41 227.099 22.81C226.359 23.19 225.739 23.71 225.239 24.37C224.739 25.03 224.359 25.79 224.099 26.65C223.839 27.49 223.709 28.37 223.709 29.29Z" fill="black"/>
<path d="M2.45894 50.3336V38.139H20.8707C21.9667 38.139 22.8552 39.0275 22.8552 40.1235V50.3336V50.6447H23.1663H24.3142H24.6253V50.3336V40.1235C24.6253 38.0499 22.9443 36.3689 20.8707 36.3689H11.7869C19.2886 33.5437 24.6253 26.3003 24.6253 17.8106V4.4435C24.6253 2.36988 22.9443 0.688889 20.8707 0.688889H4.4435C2.36989 0.688889 0.688889 2.36988 0.688889 4.44349V36.3689V36.68V37.3237V37.6348V50.3336V50.6447H1H2.14783H2.45894V50.3336ZM53.9098 14.0096V13.6985V1.00005V0.688936H53.5987H52.4508H52.1397V1.00005V13.1947H31.7435V1.00005V0.688936H31.4323H30.2845H29.9734V1.00005V13.6985V14.0096V14.6536V14.9648V46.8898C29.9734 48.9635 31.6544 50.6444 33.728 50.6444H50.1552C52.2288 50.6444 53.9098 48.9635 53.9098 46.8898V14.9648V14.6536V14.0096ZM4.4435 2.45894H20.8707C21.9667 2.45894 22.8552 3.34746 22.8552 4.4435V17.8106C22.8552 27.7816 14.7721 35.8648 4.80101 35.8648H2.45894V4.44349C2.45894 3.34746 3.34746 2.45894 4.4435 2.45894ZM50.1552 48.8744H33.728C32.632 48.8744 31.7435 47.9859 31.7435 46.8898V15.4686H52.1397V46.8898C52.1397 47.9859 51.2512 48.8744 50.1552 48.8744Z" fill="black" stroke="black" stroke-width="0.622222"/>
</svg>
