<svg width="119" height="72" viewBox="0 0 119 72" fill="none" xmlns="http://www.w3.org/2000/svg">
<path d="M1 1H85.4C91.2971 1 95.6597 1.00078 99.1113 1.28279C102.551 1.56384 104.998 2.11924 107.08 3.17987C110.843 5.09734 113.903 8.15695 115.82 11.9202C116.881 14.0018 117.436 16.4487 117.717 19.8887C117.999 23.3403 118 27.7029 118 33.6V71H1V1Z" stroke="black" stroke-width="2"/>
<path d="M14.2107 12.2744H21.7099C23.0039 12.2744 24.1313 12.4117 25.0919 12.6861C26.0624 12.9508 26.8663 13.3282 27.5034 13.8184C28.1504 14.2987 28.6357 14.8722 28.9592 15.5388C29.2827 16.2054 29.4444 16.9308 29.4444 17.715C29.4444 18.2836 29.3317 18.8227 29.1062 19.3325C28.8905 19.8324 28.5818 20.2981 28.1798 20.7294C27.7877 21.1509 27.3074 21.5283 26.7388 21.8616C26.1801 22.1851 25.5625 22.4547 24.8861 22.6704L31.9883 32.2135H26.6653L19.9748 23.1997H19.1073V32.2135H14.2107V12.2744ZM19.1073 21.4499H20.166C20.764 21.4499 21.3178 21.3666 21.8276 21.1999C22.3373 21.0333 22.7785 20.798 23.151 20.4941C23.5235 20.1804 23.8127 19.7981 24.0185 19.3472C24.2342 18.8963 24.342 18.3865 24.342 17.8179C24.342 17.2886 24.2587 16.8033 24.092 16.3622C23.9352 15.9211 23.7146 15.5437 23.4304 15.23C23.1461 14.9065 22.803 14.6565 22.401 14.4801C21.9991 14.3036 21.5629 14.2154 21.0924 14.2154H19.1073V21.4499Z" fill="black"/>
<path d="M39.6945 32.4928C38.4985 32.4928 37.3908 32.2968 36.3713 31.9047C35.3616 31.5125 34.4843 30.9734 33.7392 30.2872C33.004 29.601 32.4257 28.7972 32.0041 27.8757C31.5924 26.9444 31.3866 25.9396 31.3866 24.8613C31.3866 23.7046 31.5924 22.6409 32.0041 21.6705C32.4257 20.6902 33.004 19.8471 33.7392 19.1413C34.4745 18.4355 35.3469 17.8866 36.3566 17.4944C37.3761 17.0925 38.4838 16.8916 39.6798 16.8916C40.8757 16.8916 41.9835 17.0876 43.003 17.4797C44.0225 17.8621 44.8998 18.3914 45.635 19.0678C46.38 19.7442 46.9633 20.5431 47.3848 21.4646C47.8064 22.3763 48.0171 23.3615 48.0171 24.4202C48.0171 25.5279 47.8064 26.5719 47.3848 27.5522C46.9731 28.5325 46.3948 29.3902 45.6497 30.1254C44.9145 30.8509 44.0372 31.4292 43.0177 31.8605C41.9982 32.2821 40.8904 32.4928 39.6945 32.4928ZM40.2238 30.6548C40.6356 30.6548 41.0179 30.5225 41.3708 30.2578C41.7237 29.9833 42.0276 29.6206 42.2824 29.1697C42.5471 28.7089 42.7481 28.1796 42.8853 27.5816C43.0324 26.9836 43.1059 26.3611 43.1059 25.7141C43.1059 24.7535 43.0324 23.8516 42.8853 23.0086C42.7481 22.1557 42.5177 21.4107 42.1942 20.7735C41.8707 20.1363 41.4492 19.6315 40.9297 19.259C40.4199 18.8864 39.7925 18.7002 39.0475 18.7002C38.6848 18.7002 38.3368 18.8325 38.0035 19.0972C37.6702 19.3619 37.3761 19.7197 37.1212 20.1706C36.8664 20.6118 36.6605 21.1264 36.5037 21.7146C36.3566 22.2929 36.2831 22.9056 36.2831 23.5526C36.2831 24.5231 36.3713 25.4397 36.5478 26.3023C36.734 27.165 36.9938 27.9198 37.3271 28.5668C37.6702 29.204 38.0819 29.7137 38.5623 30.096C39.0524 30.4685 39.6063 30.6548 40.2238 30.6548Z" fill="black"/>
<path d="M60.5905 21.5969C60.5513 21.4695 60.4679 21.2489 60.3405 20.9352C60.2131 20.6216 60.017 20.303 59.7523 19.9795C59.4975 19.6462 59.1544 19.3521 58.723 19.0972C58.3015 18.8423 57.7722 18.7149 57.135 18.7149C56.6448 18.7149 56.2037 18.8374 55.8116 19.0825C55.4195 19.3276 55.0862 19.656 54.8117 20.0677C54.5372 20.4794 54.3215 20.9598 54.1647 21.5087C54.0177 22.0577 53.9441 22.6311 53.9441 23.2291C53.9441 24.0722 54.0373 24.876 54.2235 25.6406C54.4196 26.4053 54.6892 27.0816 55.0323 27.6698C55.3754 28.2482 55.792 28.7089 56.2821 29.052C56.7723 29.3951 57.3163 29.5667 57.9143 29.5667C58.424 29.5667 58.8799 29.4686 59.2818 29.2726C59.6935 29.0667 60.066 28.7923 60.3993 28.4492C60.7326 28.0962 61.0316 27.6894 61.2963 27.2287C61.561 26.7582 61.8109 26.2582 62.0462 25.7289L64.2224 26.317C63.9676 27.2973 63.6147 28.1698 63.1637 28.9344C62.7128 29.699 62.1736 30.346 61.5463 30.8754C60.9287 31.4047 60.2278 31.8066 59.4435 32.0811C58.6593 32.3556 57.8065 32.4928 56.885 32.4928C55.8459 32.4928 54.8705 32.2968 53.9588 31.9047C53.0472 31.5027 52.2531 30.9636 51.5767 30.2872C50.9003 29.601 50.3661 28.807 49.974 27.9051C49.5819 26.9934 49.3858 26.0278 49.3858 25.0083C49.3858 24.2731 49.4789 23.5624 49.6652 22.8762C49.8612 22.1802 50.1308 21.5332 50.4739 20.9352C50.8268 20.3275 51.2434 19.7785 51.7238 19.2884C52.2139 18.7884 52.7531 18.362 53.3413 18.0091C53.9392 17.6562 54.5764 17.3817 55.2528 17.1857C55.9292 16.9896 56.6301 16.8916 57.3555 16.8916C58.13 16.8916 58.8064 16.9406 59.3847 17.0386C59.9631 17.1366 60.4728 17.2935 60.914 17.5091C61.3649 17.7248 61.7717 18.0091 62.1344 18.362C62.5069 18.7051 62.8746 19.1266 63.2373 19.6266L60.5905 21.5969Z" fill="black"/>
<path d="M66.7086 18.5237L69.9142 16.8475H71.2817V32.2135H66.7086V18.5237Z" fill="black"/>
<path d="M81.8406 32.4928C80.6446 32.4928 79.5369 32.2968 78.5174 31.9047C77.5077 31.5125 76.6303 30.9734 75.8853 30.2872C75.1501 29.601 74.5717 28.7972 74.1502 27.8757C73.7385 26.9444 73.5326 25.9396 73.5326 24.8613C73.5326 23.7046 73.7385 22.6409 74.1502 21.6705C74.5717 20.6902 75.1501 19.8471 75.8853 19.1413C76.6205 18.4355 77.493 17.8866 78.5027 17.4944C79.5222 17.0925 80.6299 16.8916 81.8259 16.8916C83.0218 16.8916 84.1295 17.0876 85.149 17.4797C86.1685 17.8621 87.0459 18.3914 87.7811 19.0678C88.5261 19.7442 89.1094 20.5431 89.5309 21.4646C89.9524 22.3763 90.1632 23.3615 90.1632 24.4202C90.1632 25.5279 89.9524 26.5719 89.5309 27.5522C89.1192 28.5325 88.5408 29.3902 87.7958 30.1254C87.0606 30.8509 86.1832 31.4292 85.1637 31.8605C84.1442 32.2821 83.0365 32.4928 81.8406 32.4928ZM82.3699 30.6548C82.7816 30.6548 83.1639 30.5225 83.5168 30.2578C83.8697 29.9833 84.1736 29.6206 84.4285 29.1697C84.6932 28.7089 84.8942 28.1796 85.0314 27.5816C85.1784 26.9836 85.252 26.3611 85.252 25.7141C85.252 24.7535 85.1784 23.8516 85.0314 23.0086C84.8942 22.1557 84.6638 21.4107 84.3403 20.7735C84.0168 20.1363 83.5953 19.6315 83.0757 19.259C82.566 18.8864 81.9386 18.7002 81.1936 18.7002C80.8309 18.7002 80.4829 18.8325 80.1496 19.0972C79.8163 19.3619 79.5222 19.7197 79.2673 20.1706C79.0124 20.6118 78.8066 21.1264 78.6497 21.7146C78.5027 22.2929 78.4292 22.9056 78.4292 23.5526C78.4292 24.5231 78.5174 25.4397 78.6938 26.3023C78.8801 27.165 79.1399 27.9198 79.4732 28.5668C79.8163 29.204 80.228 29.7137 80.7083 30.096C81.1985 30.4685 81.7523 30.6548 82.3699 30.6548Z" fill="black"/>
<path d="M22.1646 39.6349L31.5165 59.9856H26.5171L24.0173 54.545H16.2682L13.6508 59.9856H10.3276L20.0472 39.6349H22.1646ZM17.1945 52.6923H23.1939L20.2383 46.2518L17.1945 52.6923Z" fill="black"/>
<path d="M37.3112 59.9856H32.7676V38.9291L35.9437 37.2528H37.3112V59.9856Z" fill="black"/>
<path d="M47.8407 60.265C46.6447 60.265 45.537 60.069 44.5175 59.6768C43.5078 59.2847 42.6304 58.7456 41.8854 58.0594C41.1502 57.3732 40.5718 56.5693 40.1503 55.6479C39.7386 54.7166 39.5327 53.7118 39.5327 52.6335C39.5327 51.4767 39.7386 50.4131 40.1503 49.4426C40.5718 48.4624 41.1502 47.6193 41.8854 46.9135C42.6206 46.2077 43.4931 45.6587 44.5028 45.2666C45.5223 44.8647 46.63 44.6637 47.826 44.6637C49.0219 44.6637 50.1296 44.8598 51.1491 45.2519C52.1686 45.6342 53.046 46.1636 53.7812 46.84C54.5262 47.5164 55.1095 48.3153 55.531 49.2368C55.9526 50.1485 56.1633 51.1336 56.1633 52.1924C56.1633 53.3001 55.9526 54.3441 55.531 55.3244C55.1193 56.3047 54.5409 57.1624 53.7959 57.8976C53.0607 58.623 52.1833 59.2014 51.1638 59.6327C50.1444 60.0543 49.0366 60.265 47.8407 60.265ZM48.37 58.427C48.7818 58.427 49.1641 58.2946 49.517 58.03C49.8699 57.7555 50.1738 57.3928 50.4286 56.9418C50.6933 56.4811 50.8943 55.9518 51.0315 55.3538C51.1786 54.7558 51.2521 54.1333 51.2521 53.4863C51.2521 52.5257 51.1786 51.6238 51.0315 50.7807C50.8943 49.9279 50.6639 49.1829 50.3404 48.5457C50.0169 47.9085 49.5954 47.4036 49.0758 47.0311C48.5661 46.6586 47.9387 46.4724 47.1937 46.4724C46.831 46.4724 46.483 46.6047 46.1497 46.8694C45.8164 47.1341 45.5223 47.4919 45.2674 47.9428C45.0125 48.3839 44.8067 48.8986 44.6498 49.4868C44.5028 50.0651 44.4293 50.6778 44.4293 51.3248C44.4293 52.2953 44.5175 53.2118 44.694 54.0745C44.8802 54.9372 45.14 55.692 45.4733 56.339C45.8164 56.9762 46.2281 57.4859 46.7084 57.8682C47.1986 58.2407 47.7524 58.427 48.37 58.427Z" fill="black"/>
<path d="M67.6191 49.7073C67.6191 49.325 67.575 48.9868 67.4868 48.6927C67.4084 48.3888 67.2956 48.1389 67.1486 47.9428C67.0114 47.7369 66.8496 47.585 66.6634 47.487C66.4869 47.3791 66.3007 47.3252 66.1046 47.3252C65.9085 47.3252 65.6831 47.3644 65.4282 47.4429C65.1733 47.5213 64.9037 47.634 64.6195 47.7811C64.345 47.9183 64.0607 48.0899 63.7666 48.2957C63.4725 48.5016 63.1931 48.7319 62.9285 48.9868V59.9856H58.3407V46.2959L61.561 44.6196H62.9285V46.1489C63.6343 45.6391 64.3891 45.2666 65.1929 45.0314C65.9968 44.7863 66.7957 44.6637 67.5897 44.6637C68.2073 44.6637 68.7906 44.7863 69.3395 45.0314C69.8983 45.2666 70.3835 45.5901 70.7953 46.0018C71.2168 46.4136 71.5501 46.8988 71.7952 47.4576C72.0402 48.0065 72.1628 48.5947 72.1628 49.2221V59.9856H67.6191V49.7073Z" fill="black"/>
<path d="M76.8546 55.7802C77.1193 56.6036 77.4967 57.2457 77.9868 57.7065C78.4868 58.1574 79.1093 58.3829 79.8543 58.3829C80.168 58.3829 80.4523 58.3437 80.7071 58.2652C80.9718 58.1868 81.1973 58.079 81.3835 57.9417C81.5796 57.7947 81.7266 57.628 81.8247 57.4418C81.9325 57.2555 81.9864 57.0546 81.9864 56.8389C81.9864 56.486 81.9178 56.1723 81.7806 55.8978C81.6531 55.6136 81.4718 55.3587 81.2365 55.1332C81.0012 54.9077 80.7218 54.7019 80.3984 54.5156C80.0749 54.3196 79.7269 54.1382 79.3544 53.9716C78.7564 53.7069 78.1633 53.4226 77.5751 53.1187C76.987 52.805 76.4576 52.4521 75.9871 52.06C75.5165 51.6581 75.1342 51.2023 74.8401 50.6925C74.5558 50.1828 74.4137 49.5946 74.4137 48.928C74.4137 48.2908 74.546 47.7124 74.8107 47.1929C75.0754 46.6635 75.4479 46.2126 75.9282 45.8401C76.4086 45.4676 76.9821 45.1784 77.6487 44.9725C78.3152 44.7667 79.0505 44.6637 79.8543 44.6637C80.5895 44.6637 81.2414 44.7324 81.81 44.8696C82.3785 45.0068 82.8785 45.2029 83.3098 45.4578C83.7411 45.7127 84.1235 46.0263 84.4567 46.3989C84.79 46.7616 85.089 47.1733 85.3537 47.634L82.7069 48.5457C82.5697 48.0653 82.403 47.6928 82.207 47.4282C82.0109 47.1635 81.8051 46.9674 81.5894 46.84C81.3737 46.7027 81.163 46.6194 80.9571 46.59C80.7513 46.5606 80.5699 46.5459 80.4131 46.5459C80.1288 46.5459 79.8592 46.5802 79.6043 46.6488C79.3494 46.7076 79.124 46.7959 78.9279 46.9135C78.7319 47.0311 78.575 47.1782 78.4574 47.3546C78.3398 47.5213 78.2809 47.7173 78.2809 47.9428C78.2809 48.2271 78.3545 48.4967 78.5015 48.7515C78.6485 49.0064 78.8544 49.2466 79.1191 49.4721C79.3838 49.6877 79.6926 49.8936 80.0455 50.0896C80.4082 50.2857 80.8003 50.4719 81.2218 50.6484C81.859 50.9131 82.4766 51.2072 83.0745 51.5307C83.6823 51.8542 84.2215 52.2218 84.692 52.6335C85.1626 53.0354 85.54 53.4863 85.8242 53.9863C86.1085 54.4764 86.2507 55.0254 86.2507 55.6332C86.2507 56.29 86.1428 56.9026 85.9272 57.4712C85.7115 58.0398 85.3586 58.5348 84.8685 58.9563C84.3881 59.3779 83.7607 59.7112 82.9863 59.9562C82.2217 60.2013 81.2904 60.3238 80.1925 60.3238C79.2514 60.3238 78.4525 60.216 77.7957 60.0003C77.1487 59.7847 76.5997 59.5102 76.1488 59.1769C75.6979 58.8338 75.3254 58.4515 75.0313 58.03C74.7372 57.6084 74.4774 57.1918 74.252 56.7801L76.8546 55.7802Z" fill="black"/>
<path d="M95.692 60.265C94.4961 60.265 93.3883 60.069 92.3688 59.6768C91.3591 59.2847 90.4818 58.7456 89.7368 58.0594C89.0016 57.3732 88.4232 56.5693 88.0017 55.6479C87.5899 54.7166 87.3841 53.7118 87.3841 52.6335C87.3841 51.4767 87.5899 50.4131 88.0017 49.4426C88.4232 48.4624 89.0016 47.6193 89.7368 46.9135C90.472 46.2077 91.3444 45.6587 92.3541 45.2666C93.3736 44.8647 94.4814 44.6637 95.6773 44.6637C96.8733 44.6637 97.981 44.8598 99.0005 45.2519C100.02 45.6342 100.897 46.1636 101.633 46.84C102.378 47.5164 102.961 48.3153 103.382 49.2368C103.804 50.1485 104.015 51.1336 104.015 52.1924C104.015 53.3001 103.804 54.3441 103.382 55.3244C102.971 56.3047 102.392 57.1624 101.647 57.8976C100.912 58.623 100.035 59.2014 99.0152 59.6327C97.9957 60.0543 96.888 60.265 95.692 60.265ZM96.2214 58.427C96.6331 58.427 97.0154 58.2946 97.3683 58.03C97.7212 57.7555 98.0251 57.3928 98.28 56.9418C98.5447 56.4811 98.7456 55.9518 98.8829 55.3538C99.0299 54.7558 99.1034 54.1333 99.1034 53.4863C99.1034 52.5257 99.0299 51.6238 98.8829 50.7807C98.7456 49.9279 98.5152 49.1829 98.1917 48.5457C97.8683 47.9085 97.4467 47.4036 96.9272 47.0311C96.4174 46.6586 95.79 46.4724 95.045 46.4724C94.6823 46.4724 94.3343 46.6047 94.001 46.8694C93.6677 47.1341 93.3736 47.4919 93.1188 47.9428C92.8639 48.3839 92.658 48.8986 92.5012 49.4868C92.3541 50.0651 92.2806 50.6778 92.2806 51.3248C92.2806 52.2953 92.3688 53.2118 92.5453 54.0745C92.7316 54.9372 92.9913 55.692 93.3246 56.339C93.6677 56.9762 94.0794 57.4859 94.5598 57.8682C95.0499 58.2407 95.6038 58.427 96.2214 58.427Z" fill="black"/>
<path d="M68 11H72.5L70.5 14.5L67 16L68 11Z" fill="black"/>
</svg>
