<svg width="127" height="78" viewBox="0 0 127 78" fill="none" xmlns="http://www.w3.org/2000/svg">
<path d="M1 1H93.4C99.2971 1 103.66 1.00078 107.111 1.28279C110.551 1.56384 112.998 2.11924 115.08 3.17987C118.843 5.09734 121.903 8.15695 123.82 11.9202C124.881 14.0018 125.436 16.4487 125.717 19.8887C125.999 23.3403 126 27.7029 126 33.6V77H1V1Z" stroke="white" stroke-width="2"/>
<path d="M18.374 12.8652H28.9454C31.3841 12.8652 33.2132 13.3922 34.4326 14.4462C35.652 15.5003 36.2617 16.9677 36.2617 18.8484C36.2617 19.9024 36.1066 20.7808 35.7966 21.4835C35.4866 22.1655 35.1249 22.7235 34.7116 23.1576C34.2982 23.5709 33.8849 23.8706 33.4715 24.0566C33.0789 24.2426 32.7895 24.3666 32.6035 24.4286V24.4906C32.9342 24.5319 33.2855 24.6353 33.6576 24.8006C34.0502 24.966 34.4119 25.2346 34.7426 25.6066C35.0733 25.958 35.342 26.423 35.5486 27.0017C35.776 27.5804 35.8896 28.3037 35.8896 29.1718C35.8896 30.4738 35.9826 31.6622 36.1686 32.7369C36.3753 33.791 36.6853 34.5453 37.0987 35H32.9445C32.6552 34.5246 32.4795 33.9976 32.4175 33.4189C32.3762 32.8403 32.3555 32.2822 32.3555 31.7449C32.3555 30.7322 32.2935 29.8641 32.1695 29.1408C32.0455 28.3968 31.8182 27.7871 31.4875 27.3117C31.1568 26.8157 30.7021 26.454 30.1234 26.2267C29.5654 25.9993 28.842 25.8857 27.9533 25.8857H22.2491V35H18.374V12.8652ZM22.2491 22.9405H28.6044C29.8444 22.9405 30.7848 22.6512 31.4255 22.0725C32.0662 21.4732 32.3865 20.5845 32.3865 19.4064C32.3865 18.7037 32.2832 18.1354 32.0765 17.7014C31.8698 17.2467 31.5805 16.8953 31.2085 16.6473C30.8571 16.3993 30.4438 16.234 29.9684 16.1513C29.5137 16.0686 29.0384 16.0273 28.5424 16.0273H22.2491V22.9405ZM47.0532 35.434C45.7718 35.434 44.6248 35.2273 43.6121 34.814C42.62 34.38 41.7727 33.791 41.07 33.0469C40.388 32.3029 39.8609 31.4142 39.4889 30.3808C39.1376 29.3475 38.9619 28.2107 38.9619 26.9707C38.9619 25.7513 39.1376 24.6249 39.4889 23.5916C39.8609 22.5582 40.388 21.6695 41.07 20.9255C41.7727 20.1814 42.62 19.6028 43.6121 19.1894C44.6248 18.7554 45.7718 18.5384 47.0532 18.5384C48.3346 18.5384 49.4713 18.7554 50.4633 19.1894C51.476 19.6028 52.3234 20.1814 53.0054 20.9255C53.7081 21.6695 54.2351 22.5582 54.5865 23.5916C54.9585 24.6249 55.1445 25.7513 55.1445 26.9707C55.1445 28.2107 54.9585 29.3475 54.5865 30.3808C54.2351 31.4142 53.7081 32.3029 53.0054 33.0469C52.3234 33.791 51.476 34.38 50.4633 34.814C49.4713 35.2273 48.3346 35.434 47.0532 35.434ZM47.0532 32.6439C47.8386 32.6439 48.5206 32.4786 49.0993 32.1479C49.678 31.8172 50.1533 31.3832 50.5253 30.8458C50.8973 30.3085 51.166 29.7091 51.3314 29.0478C51.5174 28.3658 51.6104 27.6734 51.6104 26.9707C51.6104 26.2887 51.5174 25.6066 51.3314 24.9246C51.166 24.2426 50.8973 23.6432 50.5253 23.1266C50.1533 22.5892 49.678 22.1552 49.0993 21.8245C48.5206 21.4938 47.8386 21.3285 47.0532 21.3285C46.2678 21.3285 45.5858 21.4938 45.0071 21.8245C44.4284 22.1552 43.9531 22.5892 43.5811 23.1266C43.2091 23.6432 42.9301 24.2426 42.744 24.9246C42.5787 25.6066 42.496 26.2887 42.496 26.9707C42.496 27.6734 42.5787 28.3658 42.744 29.0478C42.9301 29.7091 43.2091 30.3085 43.5811 30.8458C43.9531 31.3832 44.4284 31.8172 45.0071 32.1479C45.5858 32.4786 46.2678 32.6439 47.0532 32.6439ZM68.902 24.3356C68.7573 23.3436 68.3543 22.5995 67.693 22.1035C67.0523 21.5868 66.2359 21.3285 65.2439 21.3285C64.7892 21.3285 64.3035 21.4112 63.7868 21.5765C63.2701 21.7212 62.7948 22.0105 62.3608 22.4445C61.9267 22.8579 61.5651 23.4469 61.2757 24.2116C60.9864 24.9556 60.8417 25.9373 60.8417 27.1567C60.8417 27.8181 60.914 28.4794 61.0587 29.1408C61.224 29.8021 61.4721 30.3912 61.8027 30.9078C62.1541 31.4245 62.5984 31.8482 63.1358 32.1789C63.6731 32.4889 64.3242 32.6439 65.0889 32.6439C66.1222 32.6439 66.9696 32.3236 67.631 31.6829C68.313 31.0422 68.7367 30.1432 68.902 28.9858H72.4361C72.1055 31.0732 71.3098 32.6749 70.049 33.791C68.809 34.8863 67.1556 35.434 65.0889 35.434C63.8281 35.434 62.7121 35.2273 61.7407 34.814C60.79 34.38 59.984 33.8013 59.3226 33.0779C58.6613 32.3339 58.1549 31.4555 57.8036 30.4428C57.4729 29.4301 57.3076 28.3347 57.3076 27.1567C57.3076 25.958 57.4729 24.8316 57.8036 23.7776C58.1343 22.7235 58.6303 21.8142 59.2916 21.0495C59.953 20.2641 60.7694 19.6544 61.7407 19.2204C62.7328 18.7657 63.8901 18.5384 65.2129 18.5384C66.1429 18.5384 67.0213 18.6624 67.848 18.9104C68.6953 19.1377 69.4394 19.4891 70.08 19.9644C70.7414 20.4398 71.2788 21.0391 71.6921 21.7625C72.1055 22.4859 72.3535 23.3436 72.4361 24.3356H68.902ZM75.4018 35V18.9724H78.936V35H75.4018ZM78.1919 12.3071H82.3771L77.9749 16.7403H75.4018L78.1919 12.3071ZM90.1339 35.434C88.8525 35.434 87.7055 35.2273 86.6928 34.814C85.7008 34.38 84.8534 33.791 84.1507 33.0469C83.4687 32.3029 82.9417 31.4142 82.5696 30.3808C82.2183 29.3475 82.0426 28.2107 82.0426 26.9707C82.0426 25.7513 82.2183 24.6249 82.5696 23.5916C82.9417 22.5582 83.4687 21.6695 84.1507 20.9255C84.8534 20.1814 85.7008 19.6028 86.6928 19.1894C87.7055 18.7554 88.8525 18.5384 90.1339 18.5384C91.4153 18.5384 92.552 18.7554 93.544 19.1894C94.5568 19.6028 95.4041 20.1814 96.0861 20.9255C96.7888 21.6695 97.3159 22.5582 97.6672 23.5916C98.0392 24.6249 98.2252 25.7513 98.2252 26.9707C98.2252 28.2107 98.0392 29.3475 97.6672 30.3808C97.3159 31.4142 96.7888 32.3029 96.0861 33.0469C95.4041 33.791 94.5568 34.38 93.544 34.814C92.552 35.2273 91.4153 35.434 90.1339 35.434ZM90.1339 32.6439C90.9193 32.6439 91.6013 32.4786 92.18 32.1479C92.7587 31.8172 93.234 31.3832 93.6061 30.8458C93.9781 30.3085 94.2467 29.7091 94.4121 29.0478C94.5981 28.3658 94.6911 27.6734 94.6911 26.9707C94.6911 26.2887 94.5981 25.6066 94.4121 24.9246C94.2467 24.2426 93.9781 23.6432 93.6061 23.1266C93.234 22.5892 92.7587 22.1552 92.18 21.8245C91.6013 21.4938 90.9193 21.3285 90.1339 21.3285C89.3486 21.3285 88.6665 21.4938 88.0878 21.8245C87.5092 22.1552 87.0338 22.5892 86.6618 23.1266C86.2898 23.6432 86.0108 24.2426 85.8248 24.9246C85.6594 25.6066 85.5767 26.2887 85.5767 26.9707C85.5767 27.6734 85.6594 28.3658 85.8248 29.0478C86.0108 29.7091 86.2898 30.3085 86.6618 30.8458C87.0338 31.3832 87.5092 31.8172 88.0878 32.1479C88.6665 32.4786 89.3486 32.6439 90.1339 32.6439ZM25.2773 41.8652H29.4005L37.9258 64H33.7716L31.6946 58.1408H22.8592L20.7821 64H16.783L25.2773 41.8652ZM23.9133 55.1957H30.6715L27.3544 45.6783H27.2614L23.9133 55.1957ZM39.6306 41.8652H43.1647V64H39.6306V41.8652ZM54.3627 64.434C53.0813 64.434 51.9343 64.2273 50.9216 63.814C49.9295 63.38 49.0822 62.791 48.3795 62.0469C47.6974 61.3029 47.1704 60.4142 46.7984 59.3808C46.4471 58.3475 46.2714 57.2107 46.2714 55.9707C46.2714 54.7513 46.4471 53.6249 46.7984 52.5916C47.1704 51.5582 47.6974 50.6695 48.3795 49.9255C49.0822 49.1814 49.9295 48.6028 50.9216 48.1894C51.9343 47.7554 53.0813 47.5384 54.3627 47.5384C55.6441 47.5384 56.7808 47.7554 57.7728 48.1894C58.7855 48.6028 59.6329 49.1814 60.3149 49.9255C61.0176 50.6695 61.5446 51.5582 61.896 52.5916C62.268 53.6249 62.454 54.7513 62.454 55.9707C62.454 57.2107 62.268 58.3475 61.896 59.3808C61.5446 60.4142 61.0176 61.3029 60.3149 62.0469C59.6329 62.791 58.7855 63.38 57.7728 63.814C56.7808 64.2273 55.6441 64.434 54.3627 64.434ZM54.3627 61.6439C55.1481 61.6439 55.8301 61.4786 56.4088 61.1479C56.9875 60.8172 57.4628 60.3832 57.8348 59.8458C58.2068 59.3085 58.4755 58.7091 58.6409 58.0478C58.8269 57.3658 58.9199 56.6734 58.9199 55.9707C58.9199 55.2887 58.8269 54.6066 58.6409 53.9246C58.4755 53.2426 58.2068 52.6432 57.8348 52.1266C57.4628 51.5892 56.9875 51.1552 56.4088 50.8245C55.8301 50.4938 55.1481 50.3285 54.3627 50.3285C53.5773 50.3285 52.8953 50.4938 52.3166 50.8245C51.7379 51.1552 51.2626 51.5892 50.8906 52.1266C50.5186 52.6432 50.2395 53.2426 50.0535 53.9246C49.8882 54.6066 49.8055 55.2887 49.8055 55.9707C49.8055 56.6734 49.8882 57.3658 50.0535 58.0478C50.2395 58.7091 50.5186 59.3085 50.8906 59.8458C51.2626 60.3832 51.7379 60.8172 52.3166 61.1479C52.8953 61.4786 53.5773 61.6439 54.3627 61.6439ZM65.3921 47.9724H68.7402V50.3285L68.8022 50.3905C69.3396 49.5018 70.0423 48.8094 70.9103 48.3134C71.7783 47.7967 72.7394 47.5384 73.7934 47.5384C75.5501 47.5384 76.9349 47.9931 77.9476 48.9024C78.9603 49.8118 79.4666 51.1759 79.4666 52.9946V64H75.9325V53.9246C75.8911 52.6639 75.6225 51.7545 75.1265 51.1965C74.6304 50.6178 73.8554 50.3285 72.8014 50.3285C72.202 50.3285 71.6647 50.4422 71.1893 50.6695C70.714 50.8762 70.3109 51.1759 69.9803 51.5685C69.6496 51.9405 69.3912 52.3849 69.2052 52.9016C69.0192 53.4183 68.9262 53.966 68.9262 54.5446V64H65.3921V47.9724ZM85.8596 58.8538C85.963 59.8872 86.3557 60.6105 87.0377 61.0239C87.7197 61.4372 88.5361 61.6439 89.4868 61.6439C89.8175 61.6439 90.1895 61.6232 90.6028 61.5819C91.0368 61.5199 91.4398 61.4166 91.8119 61.2719C92.1839 61.1272 92.4836 60.9206 92.7109 60.6519C92.9589 60.3625 93.0726 59.9905 93.0519 59.5358C93.0312 59.0811 92.8659 58.7091 92.5559 58.4198C92.2459 58.1304 91.8429 57.9031 91.3468 57.7378C90.8715 57.5518 90.3238 57.3968 89.7038 57.2727C89.0838 57.1487 88.4534 57.0144 87.8127 56.8697C87.1514 56.7251 86.5107 56.5494 85.8906 56.3427C85.2913 56.136 84.7436 55.857 84.2476 55.5057C83.7722 55.1543 83.3899 54.71 83.1005 54.1726C82.8112 53.6146 82.6665 52.9326 82.6665 52.1266C82.6665 51.2585 82.8732 50.5352 83.2865 49.9565C83.7206 49.3571 84.2579 48.8818 84.8986 48.5304C85.56 48.1584 86.2833 47.9001 87.0687 47.7554C87.8747 47.6107 88.6394 47.5384 89.3628 47.5384C90.1895 47.5384 90.9748 47.6314 91.7189 47.8174C92.4836 47.9827 93.1656 48.2617 93.7649 48.6544C94.385 49.0471 94.8913 49.5638 95.284 50.2045C95.6973 50.8245 95.9557 51.5789 96.059 52.4676H92.3699C92.2045 51.6202 91.8119 51.0518 91.1918 50.7625C90.5925 50.4732 89.9001 50.3285 89.1148 50.3285C88.8667 50.3285 88.5671 50.3492 88.2157 50.3905C87.885 50.4318 87.5647 50.5145 87.2547 50.6385C86.9653 50.7418 86.7173 50.9072 86.5107 51.1345C86.304 51.3412 86.2006 51.6202 86.2006 51.9715C86.2006 52.4056 86.3453 52.7569 86.6347 53.0256C86.9447 53.2943 87.3374 53.5216 87.8127 53.7076C88.3087 53.873 88.8667 54.0176 89.4868 54.1416C90.1068 54.2656 90.7475 54.4 91.4088 54.5446C92.0495 54.6893 92.6799 54.865 93.2999 55.0717C93.9199 55.2783 94.4676 55.5573 94.943 55.9087C95.439 56.26 95.8317 56.7044 96.121 57.2417C96.431 57.7791 96.586 58.4405 96.586 59.2258C96.586 60.1765 96.369 60.9826 95.935 61.6439C95.501 62.3053 94.9326 62.8426 94.2299 63.256C93.5479 63.6693 92.7832 63.969 91.9359 64.155C91.0885 64.341 90.2515 64.434 89.4248 64.434C88.4121 64.434 87.4717 64.3203 86.6037 64.093C85.7563 63.8657 85.0123 63.5246 84.3716 63.07C83.7516 62.5946 83.2555 62.0159 82.8835 61.3339C82.5322 60.6312 82.3462 59.8045 82.3255 58.8538H85.8596ZM106.617 64.434C105.335 64.434 104.188 64.2273 103.175 63.814C102.183 63.38 101.336 62.791 100.633 62.0469C99.9514 61.3029 99.4243 60.4142 99.0523 59.3808C98.701 58.3475 98.5253 57.2107 98.5253 55.9707C98.5253 54.7513 98.701 53.6249 99.0523 52.5916C99.4243 51.5582 99.9514 50.6695 100.633 49.9255C101.336 49.1814 102.183 48.6028 103.175 48.1894C104.188 47.7554 105.335 47.5384 106.617 47.5384C107.898 47.5384 109.035 47.7554 110.027 48.1894C111.039 48.6028 111.887 49.1814 112.569 49.9255C113.272 50.6695 113.799 51.5582 114.15 52.5916C114.522 53.6249 114.708 54.7513 114.708 55.9707C114.708 57.2107 114.522 58.3475 114.15 59.3808C113.799 60.4142 113.272 61.3029 112.569 62.0469C111.887 62.791 111.039 63.38 110.027 63.814C109.035 64.2273 107.898 64.434 106.617 64.434ZM106.617 61.6439C107.402 61.6439 108.084 61.4786 108.663 61.1479C109.241 60.8172 109.717 60.3832 110.089 59.8458C110.461 59.3085 110.729 58.7091 110.895 58.0478C111.081 57.3658 111.174 56.6734 111.174 55.9707C111.174 55.2887 111.081 54.6066 110.895 53.9246C110.729 53.2426 110.461 52.6432 110.089 52.1266C109.717 51.5892 109.241 51.1552 108.663 50.8245C108.084 50.4938 107.402 50.3285 106.617 50.3285C105.831 50.3285 105.149 50.4938 104.571 50.8245C103.992 51.1552 103.516 51.5892 103.144 52.1266C102.772 52.6432 102.493 53.2426 102.307 53.9246C102.142 54.6066 102.059 55.2887 102.059 55.9707C102.059 56.6734 102.142 57.3658 102.307 58.0478C102.493 58.7091 102.772 59.3085 103.144 59.8458C103.516 60.3832 103.992 60.8172 104.571 61.1479C105.149 61.4786 105.831 61.6439 106.617 61.6439Z" fill="white"/>
</svg>
