<svg width="280" height="119" viewBox="0 0 280 119" fill="none" xmlns="http://www.w3.org/2000/svg">
<path d="M1.46 99.9664C1.46 83.0264 1.45 66.0864 1.46 49.1464C1.47 39.6964 1.44 30.2364 1.63 20.7864C1.73 15.6364 2.01 10.4664 2.72 5.36638C3 3.35638 2.17 -0.273617 6.23 0.0163826C10.01 0.276383 9.36 3.34638 9.33 5.70638C9.27 11.1964 8.81 16.6764 8.84 22.1664C8.91 35.9864 9.4 49.8064 9.29 63.6264C9.16 79.7464 8.59 95.8564 8.16 111.966C8.12 113.446 8.08 115.136 7.38 116.336C6.67 117.546 5.09 119.076 3.98 119.006C2.89 118.936 1.15 117.126 1.02 115.936C0.42 110.656 0.3 105.326 0 100.006C0.48 100.006 0.97 99.9864 1.45 99.9764L1.46 99.9664Z" fill="white"/>
<path d="M164.06 78.3565C162.99 86.2465 162.43 92.8564 161.04 99.2764C160.6 101.286 157.76 104.386 156.3 104.236C152.75 103.876 153.66 100.646 154.04 97.8864C155.26 88.9964 156.07 80.0464 157.39 71.1664C157.66 69.3564 159.16 66.7664 160.6 66.3764C161.95 66.0064 164.46 67.6665 165.61 69.1165C171.1 76.0065 176.3 83.1264 182.57 91.4564C181.97 83.3564 181.66 76.5564 180.9 69.8064C180.56 66.8164 180.65 63.9564 183.83 63.4264C187.37 62.8364 188.1 66.0664 188.22 68.7664C188.69 79.0664 189.14 89.3864 189.18 99.6964C189.18 101.816 187.37 103.956 186.4 106.076C184.5 104.796 182.09 103.896 180.8 102.156C175.28 94.6965 170.09 86.9964 164.06 78.3464V78.3565Z" fill="white"/>
<path d="M48.2799 33.2464C51.0099 37.5964 53.6599 41.7764 56.2599 45.9964C57.5999 48.1664 59.1899 50.7964 55.8599 52.1964C54.7399 52.6664 52.1099 51.0964 50.9899 49.7764C48.2299 46.4864 45.5999 42.9764 43.5599 39.2064C41.3799 35.1764 38.8799 33.8264 34.6899 36.4764C34.3099 41.3964 34.1299 46.5564 33.3599 51.6364C33.1499 53.0464 31.1699 54.1864 29.9999 55.4464C28.8899 54.0664 26.7999 52.6564 26.8299 51.3064C27.0399 41.8464 27.6999 32.3964 28.1999 22.9464C28.3699 19.6264 28.4999 16.3064 28.6499 12.9864C28.7899 9.98638 30.1599 8.30638 33.3699 8.69638C38.2499 9.29638 43.5499 8.91638 47.9299 10.7364C56.8399 14.4464 58.9299 26.9064 49.9399 31.8364C49.3999 32.1364 48.9699 32.6464 48.2799 33.2464ZM34.7899 28.1364C43.3199 27.8564 48.1599 25.5364 48.2199 22.1864C48.2799 19.0064 43.2899 14.4564 39.7399 15.3764C32.5799 17.2264 37.0899 23.5964 34.7799 28.1364H34.7899Z" fill="white"/>
<path d="M66.3902 32.7764C66.8502 21.1564 72.1202 13.0864 80.8102 10.7064C88.9202 8.47638 95.2802 11.1364 99.2802 18.4364C103.8 26.6864 103.31 37.2964 98.1102 43.7664C93.4902 49.5064 83.8802 52.0364 76.7002 49.4064C70.3502 47.0764 66.1002 40.2164 66.4002 32.7764H66.3902ZM83.2902 43.1964C90.7702 43.2364 95.3602 38.6864 95.4202 31.1564C95.4802 23.8364 91.2602 17.0164 86.5802 16.8864C79.6202 16.6864 73.8702 23.8664 73.6902 32.9764C73.5602 39.1564 77.3302 43.1664 83.2902 43.1964Z" fill="white"/>
<path d="M223.64 31.9064C224.7 40.1764 216.72 48.5364 209.2 49.8464C198.54 51.6964 191.86 48.1364 188.22 38.5064C183.41 25.7964 194.16 9.99638 207.59 10.0164C215.7 10.0264 222.22 17.2164 223.43 27.5264C223.59 28.8464 223.56 30.1864 223.64 31.9064ZM216.6 31.2564C216.59 24.0864 212.77 17.4064 208.59 16.8964C202.74 16.1764 197.05 21.3664 195.54 28.8164C195.41 29.4664 195.37 30.1364 195.25 30.7864C194.49 34.9964 194.97 39.5464 198.81 41.3264C202.04 42.8264 206.62 42.9664 210.1 41.9564C215.01 40.5464 216.97 36.1064 216.59 31.2664L216.6 31.2564Z" fill="white"/>
<path d="M125.64 66.8363C131.73 66.2163 135.94 68.6463 139.02 73.3663C147.96 87.0463 142.63 103.206 128.09 106.496C115.5 109.346 104.95 99.4763 107.12 86.7663C107.62 83.8463 108.23 80.8263 109.44 78.1563C112.63 71.1563 117.69 66.5463 125.63 66.8363H125.64ZM136.82 86.9463C135.4 83.4863 134.26 79.8563 132.48 76.5963C130.52 73.0263 127.3 72.3463 123.49 73.9463C116.59 76.8363 111.82 88.2463 115.64 94.6163C117.09 97.0263 120.61 99.2763 123.41 99.5963C131.26 100.466 136.16 95.2563 136.83 86.9563L136.82 86.9463Z" fill="white"/>
<path d="M279.45 88.1964C279.49 97.6564 273.43 104.856 263.95 106.646C254.88 108.366 247.66 104.236 244.24 95.3864C239.03 81.8764 250.33 65.9964 264.63 66.7264C272.35 67.1264 278.62 74.7164 279.44 84.6964C279.53 85.8564 279.45 87.0264 279.45 88.1864V88.1964ZM273.24 87.1464C272.04 83.9364 271.2 80.5364 269.57 77.5664C266.72 72.4064 262.79 71.7164 257.91 75.0864C253.81 77.9164 252.04 82.0264 251.21 86.8264C250.4 91.4764 251.03 95.5764 255.09 98.3064C259.31 101.136 263.8 100.106 267.8 97.7164C271.55 95.4764 272.95 91.7764 273.25 87.1464H273.24Z" fill="white"/>
<path d="M62.5399 108.686C62.0799 109.166 61.2499 110.746 60.4799 110.706C59.0299 110.636 56.8899 110.026 56.3399 108.966C54.9799 106.366 54.1999 103.416 53.4799 100.536C52.6699 97.2764 51.4899 94.9664 47.4599 95.9064C45.5299 96.3564 43.4999 96.5364 41.5099 96.5664C36.9699 96.6464 34.3199 98.4764 34.1899 103.356C34.1499 104.786 33.6799 106.596 32.7199 107.486C31.6999 108.426 29.8499 108.806 28.3899 108.746C27.8399 108.726 26.8299 106.726 26.9399 105.726C28.4199 92.4164 32.2499 79.7464 37.7799 67.5864C39.1699 64.5364 42.9499 64.1364 44.5799 66.9564C51.8099 79.4764 58.8399 92.1164 62.2299 106.366C62.3399 106.846 62.3599 107.356 62.5299 108.666L62.5399 108.686ZM48.5499 88.8464C46.3999 84.3164 44.4999 80.2964 41.9999 75.0264C40.1099 80.6964 38.6599 85.0264 37.0099 89.9564C41.0899 89.5664 44.3199 89.2564 48.5399 88.8464H48.5499Z" fill="white"/>
<path d="M215.16 111.176C210.27 108.976 205.28 106.966 200.58 104.416C199.54 103.846 198.75 100.986 199.29 99.8565C199.8 98.7865 202.37 97.8664 203.71 98.1964C206.23 98.8164 208.47 100.486 210.91 101.526C218.51 104.766 224.85 101.386 223.37 94.5065C222.82 91.9465 219.48 89.6965 216.98 87.9165C213.78 85.6465 209.12 84.7865 206.91 81.9065C201.24 74.5665 203.01 68.5965 211.78 62.9565C217.08 59.5465 222.54 60.0265 226.06 63.6665C227.25 64.8965 227.23 67.2765 227.76 69.1365C225.98 69.1865 223.94 69.8465 222.48 69.1865C217.58 66.9965 213.93 67.8065 212.12 72.0265C210.55 75.6865 212.35 78.5565 217.42 80.4665C218.98 81.0565 220.58 81.5465 222.07 82.2765C230.12 86.1965 233.01 91.6064 231.34 99.4464C229.95 105.986 224.19 109.846 215.75 109.906C215.56 110.336 215.36 110.756 215.17 111.186L215.16 111.176Z" fill="white"/>
<path d="M119.5 34.6464C119.45 38.8564 120.09 43.0964 124.56 44.5464C128.98 45.9864 133.46 45.0364 137.05 41.6964C138.01 40.8064 138.49 39.2564 139.56 38.6564C140.97 37.8764 143.55 36.8964 144.18 37.4964C145.3 38.5764 146.17 41.0964 145.66 42.4664C143.31 48.8364 134.36 52.9564 125.38 52.2764C119.98 51.8664 113.76 46.5164 112.69 40.4964C110.69 29.3164 114.57 13.0064 130.17 9.63636C132.99 9.02636 136.19 8.90636 138.92 9.64636C140.53 10.0864 141.57 12.6664 142.86 14.2864C141.09 15.0664 139.38 16.1164 137.53 16.5864C134.1 17.4464 130.23 17.2664 127.17 18.7864C122.44 21.1364 119.52 28.2364 119.5 34.6364V34.6464Z" fill="white"/>
<path d="M79.9702 98.1963C84.8602 98.1963 88.8302 98.0063 92.7602 98.2563C95.5202 98.4363 98.1602 99.2663 97.5802 103.076C97.0502 106.596 94.4502 105.916 92.1902 105.696C87.2402 105.196 82.3002 104.486 77.3402 104.066C74.3902 103.816 73.1502 102.226 73.2002 99.5263C73.3102 93.5563 73.4802 87.5763 73.7902 81.6163C73.9702 78.1363 74.1702 74.6063 74.8902 71.2163C75.4502 68.5763 75.1602 64.2163 79.6702 65.1963C83.7102 66.0763 82.4202 69.6763 82.1302 72.6663C81.3302 80.7563 80.7502 88.8563 79.9802 98.1963H79.9702Z" fill="white"/>
<path d="M170.27 18.8363C170.27 26.1163 170.21 34.2563 170.35 42.3863C170.37 43.3763 171.49 44.3363 172.07 45.3363C172.69 46.3963 173.98 47.7363 173.71 48.5063C173.31 49.6363 171.9 50.9263 170.71 51.1763C167.81 51.7863 164.79 52.0563 161.83 52.0163C160.65 52.0063 158.75 51.0163 158.5 50.1063C158.19 49.0063 159.13 47.4363 159.79 46.2063C160.87 44.2063 163.13 42.3463 163.18 40.3863C163.36 33.4363 162.89 26.4563 162.47 19.4963C162.41 18.4663 161.18 17.5463 160.67 16.4863C159.94 14.9663 158.8 13.2963 158.96 11.8163C159.04 11.0563 161.54 10.3163 163.03 10.0463C164.64 9.75634 166.44 9.70634 167.99 10.1463C170.14 10.7463 172.14 11.8863 174.2 12.8063C172.98 14.6763 171.76 16.5463 170.26 18.8463L170.27 18.8363Z" fill="white"/>
</svg>
