<svg width="230" height="124" viewBox="0 0 230 124" fill="none" xmlns="http://www.w3.org/2000/svg">
<path d="M2.54785 104.047C2.36349 87.1081 2.16913 70.1692 1.99477 53.2301C1.90193 43.7806 1.76898 34.3215 1.85612 24.87C1.90007 19.7192 2.12379 14.5464 2.77824 9.439C3.03635 7.42607 2.16689 3.80532 6.22981 4.05112C10.0124 4.26997 9.39586 7.34686 9.39155 9.70705C9.3913 15.1974 8.99097 20.6821 9.08071 26.1714C9.30111 39.9898 9.94149 53.8037 9.9819 67.6241C10.0273 83.7445 9.6327 99.8598 9.37805 115.973C9.35416 117.454 9.33255 119.144 8.64565 120.352C7.94886 121.569 6.38561 123.116 5.27491 123.059C4.18422 123 2.42462 121.209 2.28168 120.021C1.62425 114.748 1.44625 109.419 1.08837 104.103C1.56834 104.098 2.0581 104.072 2.53796 104.057L2.54785 104.047Z" fill="black"/>
<path d="M30.0468 8.03482H52.1481C56.621 8.03482 60.1072 9.13111 62.6067 11.3237C65.1501 13.5163 66.4218 16.5201 66.4218 20.3352C66.4218 23.1856 65.7641 25.6851 64.4485 27.8339C63.1768 29.9826 61.1158 31.4516 58.2654 32.241V32.3725C59.6248 32.6356 60.7211 33.0741 61.5543 33.6881C62.4313 34.302 63.111 35.0475 63.5934 35.9245C64.1196 36.7577 64.4924 37.7005 64.7116 38.7529C64.9747 39.8054 65.1721 40.9017 65.3036 42.0418C65.3913 43.182 65.4571 44.344 65.5009 45.528C65.5448 46.712 65.6544 47.8741 65.8298 49.0142C66.0052 50.1544 66.2464 51.2507 66.5534 52.3031C66.9042 53.3117 67.4085 54.2107 68.0663 55H61.0938C60.6553 54.5176 60.3484 53.8599 60.173 53.0267C60.0414 52.1935 59.9537 51.2726 59.9098 50.264C59.866 49.2116 59.8221 48.0934 59.7783 46.9094C59.7344 45.7254 59.6029 44.5633 59.3836 43.4231C59.2082 42.283 58.989 41.2086 58.7259 40.2C58.4627 39.1476 58.0462 38.2486 57.4761 37.5032C56.906 36.7138 56.1605 36.0999 55.2396 35.6614C54.3188 35.179 53.0909 34.9378 51.5561 34.9378H36.2957V55H30.0468V8.03482ZM49.3197 29.6756C50.7668 29.6756 52.1481 29.566 53.4636 29.3468C54.7792 29.1275 55.9193 28.7109 56.8841 28.097C57.8927 27.4392 58.682 26.5841 59.2521 25.5317C59.866 24.4354 60.173 23.0321 60.173 21.3219C60.173 18.9539 59.5152 17.0244 58.1996 15.5335C56.8841 14.0425 54.7573 13.297 51.8192 13.297H36.2957V29.6756H49.3197ZM78.2335 38.0294C78.2335 40.0904 78.4966 41.9322 79.0229 43.5547C79.5929 45.1334 80.3603 46.4708 81.3251 47.5671C82.2898 48.6196 83.408 49.4308 84.6797 50.0009C85.9953 50.571 87.3766 50.856 88.8237 50.856C90.2708 50.856 91.6302 50.571 92.9019 50.0009C94.2175 49.4308 95.3576 48.6196 96.3224 47.5671C97.2871 46.4708 98.0326 45.1334 98.5588 43.5547C99.1289 41.9322 99.4139 40.0904 99.4139 38.0294C99.4139 35.9684 99.1289 34.1485 98.5588 32.5699C98.0326 30.9473 97.2871 29.5879 96.3224 28.4916C95.3576 27.3953 94.2175 26.5622 92.9019 25.9921C91.6302 25.422 90.2708 25.137 88.8237 25.137C87.3766 25.137 85.9953 25.422 84.6797 25.9921C83.408 26.5622 82.2898 27.3953 81.3251 28.4916C80.3603 29.5879 79.5929 30.9473 79.0229 32.5699C78.4966 34.1485 78.2335 35.9684 78.2335 38.0294ZM72.3135 38.0294C72.3135 35.5298 72.6644 33.2057 73.366 31.057C74.0676 28.8644 75.1201 26.9788 76.5233 25.4001C77.9266 23.7776 79.6587 22.5059 81.7197 21.585C83.7808 20.6641 86.1488 20.2037 88.8237 20.2037C91.5425 20.2037 93.9105 20.6641 95.9277 21.585C97.9887 22.5059 99.7209 23.7776 101.124 25.4001C102.527 26.9788 103.58 28.8644 104.281 31.057C104.983 33.2057 105.334 35.5298 105.334 38.0294C105.334 40.5289 104.983 42.8531 104.281 45.0018C103.58 47.1505 102.527 49.0362 101.124 50.6587C99.7209 52.2373 97.9887 53.4871 95.9277 54.408C93.9105 55.285 91.5425 55.7236 88.8237 55.7236C86.1488 55.7236 83.7808 55.285 81.7197 54.408C79.6587 53.4871 77.9266 52.2373 76.5233 50.6587C75.1201 49.0362 74.0676 47.1505 73.366 45.0018C72.6644 42.8531 72.3135 40.5289 72.3135 38.0294ZM135.014 31.9121C134.575 29.7633 133.655 28.097 132.251 26.913C130.848 25.729 128.962 25.137 126.594 25.137C124.577 25.137 122.889 25.5097 121.53 26.2552C120.17 27.0007 119.074 27.9873 118.241 29.2152C117.451 30.443 116.881 31.8682 116.53 33.4907C116.18 35.0694 116.004 36.7138 116.004 38.4241C116.004 40.0027 116.18 41.5375 116.53 43.0285C116.925 44.5194 117.517 45.8569 118.306 47.0409C119.096 48.1811 120.126 49.1019 121.398 49.8036C122.67 50.5052 124.183 50.856 125.937 50.856C128.699 50.856 130.848 50.1325 132.383 48.6854C133.962 47.2382 134.926 45.1991 135.277 42.568H141C140.386 46.7778 138.807 50.0228 136.264 52.3031C133.764 54.5834 130.344 55.7236 126.002 55.7236C123.415 55.7236 121.113 55.307 119.096 54.4738C117.122 53.6406 115.456 52.4566 114.097 50.9218C112.781 49.387 111.773 47.5671 111.071 45.4623C110.413 43.3135 110.084 40.9675 110.084 38.4241C110.084 35.8807 110.413 33.5127 111.071 31.3201C111.729 29.0836 112.715 27.1542 114.031 25.5317C115.39 23.8653 117.079 22.5717 119.096 21.6508C121.113 20.686 123.459 20.2037 126.134 20.2037C128.063 20.2037 129.861 20.4449 131.528 20.9272C133.238 21.3657 134.729 22.0674 136.001 23.0321C137.316 23.9968 138.391 25.2247 139.224 26.7156C140.057 28.1628 140.583 29.8949 140.802 31.9121H135.014ZM147.585 55V20.993H153.176V55H147.585ZM159.819 4.35128H152.65L146.335 15.0072H150.545L159.819 4.35128ZM165.916 38.0294C165.916 40.0904 166.179 41.9322 166.705 43.5547C167.275 45.1334 168.042 46.4708 169.007 47.5671C169.972 48.6196 171.09 49.4308 172.362 50.0009C173.677 50.571 175.059 50.856 176.506 50.856C177.953 50.856 179.312 50.571 180.584 50.0009C181.899 49.4308 183.04 48.6196 184.004 47.5671C184.969 46.4708 185.715 45.1334 186.241 43.5547C186.811 41.9322 187.096 40.0904 187.096 38.0294C187.096 35.9684 186.811 34.1485 186.241 32.5699C185.715 30.9473 184.969 29.5879 184.004 28.4916C183.04 27.3953 181.899 26.5622 180.584 25.9921C179.312 25.422 177.953 25.137 176.506 25.137C175.059 25.137 173.677 25.422 172.362 25.9921C171.09 26.5622 169.972 27.3953 169.007 28.4916C168.042 29.5879 167.275 30.9473 166.705 32.5699C166.179 34.1485 165.916 35.9684 165.916 38.0294ZM159.996 38.0294C159.996 35.5298 160.346 33.2057 161.048 31.057C161.75 28.8644 162.802 26.9788 164.205 25.4001C165.609 23.7776 167.341 22.5059 169.402 21.585C171.463 20.6641 173.831 20.2037 176.506 20.2037C179.225 20.2037 181.593 20.6641 183.61 21.585C185.671 22.5059 187.403 23.7776 188.806 25.4001C190.209 26.9788 191.262 28.8644 191.963 31.057C192.665 33.2057 193.016 35.5298 193.016 38.0294C193.016 40.5289 192.665 42.8531 191.963 45.0018C191.262 47.1505 190.209 49.0362 188.806 50.6587C187.403 52.2373 185.671 53.4871 183.61 54.408C181.593 55.285 179.225 55.7236 176.506 55.7236C173.831 55.7236 171.463 55.285 169.402 54.408C167.341 53.4871 165.609 52.2373 164.205 50.6587C162.802 49.0362 161.75 47.1505 161.048 45.0018C160.346 42.8531 159.996 40.5289 159.996 38.0294ZM40.2213 97.5956H56.1395L48.3119 75.6917H48.1804L40.2213 97.5956ZM44.8915 70.0348H51.7981L70.1501 117H63.2434L58.1128 102.858H38.248L32.9858 117H26.6053L44.8915 70.0348ZM74.1913 70.0348H79.7824V117H74.1913V70.0348ZM92.5222 100.029C92.5222 102.09 92.7853 103.932 93.3115 105.555C93.8816 107.133 94.649 108.471 95.6137 109.567C96.5784 110.62 97.6967 111.431 98.9684 112.001C100.284 112.571 101.665 112.856 103.112 112.856C104.559 112.856 105.919 112.571 107.191 112.001C108.506 111.431 109.646 110.62 110.611 109.567C111.576 108.471 112.321 107.133 112.847 105.555C113.417 103.932 113.703 102.09 113.703 100.029C113.703 97.9684 113.417 96.1485 112.847 94.5699C112.321 92.9473 111.576 91.5879 110.611 90.4916C109.646 89.3953 108.506 88.5622 107.191 87.9921C105.919 87.422 104.559 87.137 103.112 87.137C101.665 87.137 100.284 87.422 98.9684 87.9921C97.6967 88.5622 96.5784 89.3953 95.6137 90.4916C94.649 91.5879 93.8816 92.9473 93.3115 94.5699C92.7853 96.1485 92.5222 97.9684 92.5222 100.029ZM86.6022 100.029C86.6022 97.5298 86.953 95.2057 87.6546 93.057C88.3562 90.8644 89.4087 88.9788 90.8119 87.4001C92.2152 85.7776 93.9473 84.5059 96.0084 83.585C98.0694 82.6641 100.437 82.2037 103.112 82.2037C105.831 82.2037 108.199 82.6641 110.216 83.585C112.277 84.5059 114.009 85.7776 115.413 87.4001C116.816 88.9788 117.868 90.8644 118.57 93.057C119.272 95.2057 119.623 97.5298 119.623 100.029C119.623 102.529 119.272 104.853 118.57 107.002C117.868 109.151 116.816 111.036 115.413 112.659C114.009 114.237 112.277 115.487 110.216 116.408C108.199 117.285 105.831 117.724 103.112 117.724C100.437 117.724 98.0694 117.285 96.0084 116.408C93.9473 115.487 92.2152 114.237 90.8119 112.659C89.4087 111.036 88.3562 109.151 87.6546 107.002C86.953 104.853 86.6022 102.529 86.6022 100.029ZM126.215 82.993H131.477V88.3868H131.608C133.933 84.2647 137.616 82.2037 142.659 82.2037C144.895 82.2037 146.759 82.5106 148.25 83.1246C149.741 83.7385 150.947 84.5936 151.868 85.6899C152.789 86.7862 153.425 88.1017 153.775 89.6365C154.17 91.1275 154.367 92.7939 154.367 94.6356V117H148.776V93.9779C148.776 91.873 148.162 90.2066 146.935 88.9788C145.707 87.7509 144.018 87.137 141.87 87.137C140.159 87.137 138.669 87.4001 137.397 87.9263C136.169 88.4525 135.138 89.198 134.305 90.1628C133.472 91.1275 132.836 92.2676 132.398 93.5832C132.003 94.8549 131.806 96.2581 131.806 97.793V117H126.215V82.993ZM166.185 106.278C166.229 107.506 166.514 108.559 167.04 109.436C167.567 110.269 168.246 110.948 169.08 111.475C169.957 111.957 170.921 112.308 171.974 112.527C173.07 112.746 174.188 112.856 175.328 112.856C176.205 112.856 177.126 112.79 178.091 112.659C179.056 112.527 179.933 112.286 180.722 111.935C181.555 111.584 182.235 111.08 182.761 110.422C183.287 109.721 183.551 108.844 183.551 107.791C183.551 106.344 183.002 105.248 181.906 104.502C180.81 103.757 179.429 103.165 177.762 102.726C176.14 102.244 174.364 101.827 172.434 101.476C170.505 101.082 168.707 100.556 167.04 99.8978C165.418 99.1962 164.059 98.2315 162.962 97.0036C161.866 95.7758 161.318 94.0656 161.318 91.873C161.318 90.1628 161.691 88.6937 162.436 87.4659C163.225 86.238 164.212 85.2514 165.396 84.5059C166.624 83.7166 167.983 83.1465 169.474 82.7957C171.009 82.401 172.522 82.2037 174.013 82.2037C175.942 82.2037 177.718 82.3791 179.341 82.7299C180.963 83.0369 182.389 83.6069 183.616 84.4401C184.888 85.2294 185.897 86.3257 186.642 87.729C187.388 89.0884 187.826 90.7986 187.958 92.8596H182.367C182.279 91.7633 181.994 90.8644 181.511 90.1628C181.029 89.4173 180.415 88.8253 179.67 88.3868C178.924 87.9482 178.091 87.6413 177.17 87.4659C176.293 87.2466 175.394 87.137 174.473 87.137C173.64 87.137 172.785 87.2028 171.908 87.3343C171.075 87.4659 170.307 87.7071 169.606 88.0579C168.904 88.3648 168.334 88.8034 167.896 89.3734C167.457 89.8996 167.238 90.6013 167.238 91.4783C167.238 92.443 167.567 93.2543 168.224 93.9121C168.926 94.526 169.803 95.0522 170.856 95.4907C171.908 95.8854 173.092 96.2362 174.408 96.5432C175.723 96.8063 177.039 97.0913 178.354 97.3983C179.757 97.7052 181.117 98.078 182.432 98.5165C183.792 98.955 184.976 99.547 185.984 100.292C187.037 100.994 187.87 101.893 188.484 102.989C189.142 104.086 189.471 105.445 189.471 107.068C189.471 109.129 189.032 110.839 188.155 112.198C187.322 113.558 186.204 114.654 184.8 115.487C183.441 116.32 181.884 116.89 180.13 117.197C178.42 117.548 176.71 117.724 175 117.724C173.114 117.724 171.316 117.526 169.606 117.132C167.896 116.737 166.383 116.101 165.067 115.224C163.752 114.303 162.699 113.119 161.91 111.672C161.12 110.181 160.682 108.383 160.594 106.278H166.185ZM199.732 100.029C199.732 102.09 199.995 103.932 200.521 105.555C201.091 107.133 201.859 108.471 202.823 109.567C203.788 110.62 204.906 111.431 206.178 112.001C207.494 112.571 208.875 112.856 210.322 112.856C211.769 112.856 213.129 112.571 214.4 112.001C215.716 111.431 216.856 110.62 217.821 109.567C218.785 108.471 219.531 107.133 220.057 105.555C220.627 103.932 220.912 102.09 220.912 100.029C220.912 97.9684 220.627 96.1485 220.057 94.5699C219.531 92.9473 218.785 91.5879 217.821 90.4916C216.856 89.3953 215.716 88.5622 214.4 87.9921C213.129 87.422 211.769 87.137 210.322 87.137C208.875 87.137 207.494 87.422 206.178 87.9921C204.906 88.5622 203.788 89.3953 202.823 90.4916C201.859 91.5879 201.091 92.9473 200.521 94.5699C199.995 96.1485 199.732 97.9684 199.732 100.029ZM193.812 100.029C193.812 97.5298 194.163 95.2057 194.864 93.057C195.566 90.8644 196.618 88.9788 198.022 87.4001C199.425 85.7776 201.157 84.5059 203.218 83.585C205.279 82.6641 207.647 82.2037 210.322 82.2037C213.041 82.2037 215.409 82.6641 217.426 83.585C219.487 84.5059 221.219 85.7776 222.622 87.4001C224.026 88.9788 225.078 90.8644 225.78 93.057C226.481 95.2057 226.832 97.5298 226.832 100.029C226.832 102.529 226.481 104.853 225.78 107.002C225.078 109.151 224.026 111.036 222.622 112.659C221.219 114.237 219.487 115.487 217.426 116.408C215.409 117.285 213.041 117.724 210.322 117.724C207.647 117.724 205.279 117.285 203.218 116.408C201.157 115.487 199.425 114.237 198.022 112.659C196.618 111.036 195.566 109.151 194.864 107.002C194.163 104.853 193.812 102.529 193.812 100.029Z" fill="black"/>
</svg>
