<svg width="140" height="137" viewBox="0 0 140 137" fill="none" xmlns="http://www.w3.org/2000/svg">
<path d="M2.01228 116.075H9.87587C11.4673 116.075 12.7077 116.465 13.597 117.245C14.502 118.026 14.9544 119.094 14.9544 120.452C14.9544 121.466 14.7204 122.355 14.2523 123.12C13.7999 123.884 13.0666 124.407 12.0524 124.688V124.735C12.5361 124.828 12.9261 124.984 13.2226 125.203C13.5346 125.421 13.7765 125.686 13.9481 125.998C14.1353 126.295 14.2679 126.63 14.3459 127.005C14.4396 127.379 14.5098 127.769 14.5566 128.175C14.5878 128.581 14.6112 128.994 14.6268 129.415C14.6424 129.837 14.6814 130.25 14.7438 130.656C14.8062 131.061 14.892 131.451 15.0012 131.826C15.1261 132.185 15.3055 132.505 15.5395 132.785H13.0588C12.9027 132.614 12.7935 132.38 12.7311 132.083C12.6843 131.787 12.6531 131.459 12.6375 131.1C12.6219 130.726 12.6063 130.328 12.5907 129.907C12.5751 129.486 12.5283 129.072 12.4503 128.666C12.3879 128.261 12.3098 127.878 12.2162 127.52C12.1226 127.145 11.9744 126.825 11.7716 126.56C11.5687 126.279 11.3035 126.061 10.9758 125.905C10.6482 125.733 10.2113 125.647 9.66524 125.647H4.23562V132.785H2.01228V116.075ZM8.86952 123.775C9.3844 123.775 9.87587 123.736 10.3439 123.658C10.812 123.58 11.2177 123.432 11.5609 123.213C11.9198 122.979 12.2006 122.675 12.4035 122.301C12.6219 121.911 12.7311 121.411 12.7311 120.803C12.7311 119.96 12.4971 119.274 12.029 118.743C11.5609 118.213 10.8042 117.948 9.75885 117.948H4.23562V123.775H8.86952ZM19.157 126.747C19.157 127.481 19.2506 128.136 19.4379 128.713C19.6407 129.275 19.9137 129.751 20.257 130.141C20.6002 130.515 20.9981 130.804 21.4506 131.007C21.9186 131.21 22.4101 131.311 22.925 131.311C23.4399 131.311 23.9235 131.21 24.376 131.007C24.8441 130.804 25.2497 130.515 25.593 130.141C25.9362 129.751 26.2015 129.275 26.3887 128.713C26.5915 128.136 26.693 127.481 26.693 126.747C26.693 126.014 26.5915 125.366 26.3887 124.805C26.2015 124.228 25.9362 123.744 25.593 123.354C25.2497 122.964 24.8441 122.667 24.376 122.464C23.9235 122.262 23.4399 122.16 22.925 122.16C22.4101 122.16 21.9186 122.262 21.4506 122.464C20.9981 122.667 20.6002 122.964 20.257 123.354C19.9137 123.744 19.6407 124.228 19.4379 124.805C19.2506 125.366 19.157 126.014 19.157 126.747ZM17.0507 126.747C17.0507 125.858 17.1755 125.031 17.4252 124.267C17.6748 123.486 18.0493 122.815 18.5485 122.254C19.0478 121.677 19.6641 121.224 20.3974 120.896C21.1307 120.569 21.9732 120.405 22.925 120.405C23.8923 120.405 24.7349 120.569 25.4526 120.896C26.1859 121.224 26.8022 121.677 27.3015 122.254C27.8007 122.815 28.1752 123.486 28.4248 124.267C28.6745 125.031 28.7993 125.858 28.7993 126.747C28.7993 127.637 28.6745 128.464 28.4248 129.228C28.1752 129.993 27.8007 130.663 27.3015 131.241C26.8022 131.802 26.1859 132.247 25.4526 132.575C24.7349 132.887 23.8923 133.043 22.925 133.043C21.9732 133.043 21.1307 132.887 20.3974 132.575C19.6641 132.247 19.0478 131.802 18.5485 131.241C18.0493 130.663 17.6748 129.993 17.4252 129.228C17.1755 128.464 17.0507 127.637 17.0507 126.747ZM39.3594 124.571C39.2034 123.806 38.8757 123.213 38.3764 122.792C37.8772 122.371 37.2063 122.16 36.3637 122.16C35.646 122.16 35.0453 122.293 34.5617 122.558C34.078 122.823 33.6879 123.174 33.3915 123.611C33.1106 124.048 32.9078 124.555 32.783 125.132C32.6582 125.694 32.5958 126.279 32.5958 126.888C32.5958 127.449 32.6582 127.995 32.783 128.526C32.9234 129.056 33.1341 129.532 33.4149 129.954C33.6957 130.359 34.0624 130.687 34.5149 130.937C34.9673 131.186 35.5056 131.311 36.1297 131.311C37.1127 131.311 37.8772 131.054 38.4233 130.539C38.9849 130.024 39.3282 129.298 39.453 128.362H41.4891C41.2707 129.86 40.709 131.015 39.8041 131.826C38.9147 132.637 37.6977 133.043 36.1531 133.043C35.2326 133.043 34.4134 132.895 33.6957 132.598C32.9936 132.302 32.4007 131.88 31.9171 131.334C31.449 130.788 31.0901 130.141 30.8405 129.392C30.6065 128.627 30.4895 127.793 30.4895 126.888C30.4895 125.983 30.6065 125.14 30.8405 124.36C31.0745 123.564 31.4256 122.878 31.8937 122.301C32.3773 121.708 32.978 121.247 33.6957 120.92C34.4134 120.577 35.2482 120.405 36.1999 120.405C36.8864 120.405 37.5261 120.491 38.119 120.662C38.7275 120.818 39.258 121.068 39.7104 121.411C40.1785 121.755 40.5608 122.191 40.8572 122.722C41.1537 123.237 41.3409 123.853 41.4189 124.571H39.3594ZM43.832 132.785V120.686H45.8213V132.785H43.832ZM48.1851 114.765H45.6341L43.3874 118.556H44.8852L48.1851 114.765ZM50.3541 126.747C50.3541 127.481 50.4477 128.136 50.635 128.713C50.8378 129.275 51.1108 129.751 51.4541 130.141C51.7973 130.515 52.1952 130.804 52.6477 131.007C53.1157 131.21 53.6072 131.311 54.1221 131.311C54.637 131.311 55.1206 131.21 55.5731 131.007C56.0412 130.804 56.4468 130.515 56.7901 130.141C57.1333 129.751 57.3986 129.275 57.5858 128.713C57.7886 128.136 57.8901 127.481 57.8901 126.747C57.8901 126.014 57.7886 125.366 57.5858 124.805C57.3986 124.228 57.1333 123.744 56.7901 123.354C56.4468 122.964 56.0412 122.667 55.5731 122.464C55.1206 122.262 54.637 122.16 54.1221 122.16C53.6072 122.16 53.1157 122.262 52.6477 122.464C52.1952 122.667 51.7973 122.964 51.4541 123.354C51.1108 123.744 50.8378 124.228 50.635 124.805C50.4477 125.366 50.3541 126.014 50.3541 126.747ZM48.2478 126.747C48.2478 125.858 48.3726 125.031 48.6223 124.267C48.8719 123.486 49.2464 122.815 49.7456 122.254C50.2449 121.677 50.8612 121.224 51.5945 120.896C52.3278 120.569 53.1703 120.405 54.1221 120.405C55.0894 120.405 55.932 120.569 56.6497 120.896C57.383 121.224 57.9993 121.677 58.4986 122.254C58.9978 122.815 59.3723 123.486 59.6219 124.267C59.8716 125.031 59.9964 125.858 59.9964 126.747C59.9964 127.637 59.8716 128.464 59.6219 129.228C59.3723 129.993 58.9978 130.663 58.4986 131.241C57.9993 131.802 57.383 132.247 56.6497 132.575C55.932 132.887 55.0894 133.043 54.1221 133.043C53.1703 133.043 52.3278 132.887 51.5945 132.575C50.8612 132.247 50.2449 131.802 49.7456 131.241C49.2464 130.663 48.8719 129.993 48.6223 129.228C48.3726 128.464 48.2478 127.637 48.2478 126.747ZM72.0618 125.881H77.7255L74.9405 118.088H74.8936L72.0618 125.881ZM73.7235 116.075H76.1808L82.7104 132.785H80.2531L78.4276 127.754H71.3597L69.4874 132.785H67.2173L73.7235 116.075ZM84.1483 116.075H86.1376V132.785H84.1483V116.075ZM90.6704 126.747C90.6704 127.481 90.764 128.136 90.9512 128.713C91.154 129.275 91.4271 129.751 91.7703 130.141C92.1136 130.515 92.5114 130.804 92.9639 131.007C93.432 131.21 93.9235 131.311 94.4383 131.311C94.9532 131.311 95.4369 131.21 95.8894 131.007C96.3574 130.804 96.7631 130.515 97.1063 130.141C97.4496 129.751 97.7148 129.275 97.9021 128.713C98.1049 128.136 98.2063 127.481 98.2063 126.747C98.2063 126.014 98.1049 125.366 97.9021 124.805C97.7148 124.228 97.4496 123.744 97.1063 123.354C96.7631 122.964 96.3574 122.667 95.8894 122.464C95.4369 122.262 94.9532 122.16 94.4383 122.16C93.9235 122.16 93.432 122.262 92.9639 122.464C92.5114 122.667 92.1136 122.964 91.7703 123.354C91.4271 123.744 91.154 124.228 90.9512 124.805C90.764 125.366 90.6704 126.014 90.6704 126.747ZM88.564 126.747C88.564 125.858 88.6889 125.031 88.9385 124.267C89.1881 123.486 89.5626 122.815 90.0619 122.254C90.5611 121.677 91.1774 121.224 91.9108 120.896C92.6441 120.569 93.4866 120.405 94.4383 120.405C95.4057 120.405 96.2482 120.569 96.9659 120.896C97.6992 121.224 98.3155 121.677 98.8148 122.254C99.3141 122.815 99.6885 123.486 99.9382 124.267C100.188 125.031 100.313 125.858 100.313 126.747C100.313 127.637 100.188 128.464 99.9382 129.228C99.6885 129.993 99.3141 130.663 98.8148 131.241C98.3155 131.802 97.6992 132.247 96.9659 132.575C96.2482 132.887 95.4057 133.043 94.4383 133.043C93.4866 133.043 92.6441 132.887 91.9108 132.575C91.1774 132.247 90.5611 131.802 90.0619 131.241C89.5626 130.663 89.1881 129.993 88.9385 129.228C88.6889 128.464 88.564 127.637 88.564 126.747ZM102.658 120.686H104.53V122.605H104.577C105.404 121.138 106.715 120.405 108.509 120.405C109.305 120.405 109.968 120.514 110.498 120.733C111.029 120.951 111.458 121.255 111.785 121.645C112.113 122.035 112.339 122.503 112.464 123.05C112.605 123.58 112.675 124.173 112.675 124.828V132.785H110.686V124.594C110.686 123.845 110.467 123.252 110.03 122.815C109.593 122.379 108.993 122.16 108.228 122.16C107.62 122.16 107.089 122.254 106.637 122.441C106.2 122.628 105.833 122.894 105.537 123.237C105.24 123.58 105.014 123.986 104.858 124.454C104.718 124.906 104.647 125.405 104.647 125.952V132.785H102.658V120.686ZM116.88 128.971C116.895 129.407 116.997 129.782 117.184 130.094C117.371 130.39 117.613 130.632 117.909 130.82C118.221 130.991 118.565 131.116 118.939 131.194C119.329 131.272 119.727 131.311 120.133 131.311C120.445 131.311 120.772 131.288 121.116 131.241C121.459 131.194 121.771 131.108 122.052 130.983C122.348 130.859 122.59 130.679 122.777 130.445C122.965 130.195 123.058 129.883 123.058 129.509C123.058 128.994 122.863 128.604 122.473 128.339C122.083 128.073 121.592 127.863 120.999 127.707C120.421 127.535 119.789 127.387 119.103 127.262C118.416 127.122 117.777 126.935 117.184 126.7C116.607 126.451 116.123 126.108 115.733 125.671C115.343 125.234 115.148 124.625 115.148 123.845C115.148 123.237 115.28 122.714 115.546 122.277C115.826 121.84 116.177 121.489 116.599 121.224C117.036 120.943 117.519 120.74 118.05 120.616C118.596 120.475 119.134 120.405 119.665 120.405C120.351 120.405 120.983 120.467 121.56 120.592C122.138 120.701 122.645 120.904 123.082 121.201C123.534 121.481 123.893 121.872 124.158 122.371C124.423 122.854 124.579 123.463 124.626 124.196H122.637C122.606 123.806 122.504 123.486 122.333 123.237C122.161 122.972 121.943 122.761 121.677 122.605C121.412 122.449 121.116 122.34 120.788 122.277C120.476 122.199 120.156 122.16 119.828 122.16C119.532 122.16 119.228 122.184 118.916 122.23C118.619 122.277 118.346 122.363 118.097 122.488C117.847 122.597 117.644 122.753 117.488 122.956C117.332 123.143 117.254 123.393 117.254 123.705C117.254 124.048 117.371 124.337 117.605 124.571C117.855 124.789 118.167 124.976 118.541 125.132C118.916 125.273 119.337 125.398 119.805 125.507C120.273 125.601 120.741 125.702 121.209 125.811C121.709 125.92 122.192 126.053 122.66 126.209C123.144 126.365 123.565 126.576 123.924 126.841C124.299 127.091 124.595 127.41 124.813 127.8C125.047 128.191 125.164 128.674 125.164 129.251C125.164 129.985 125.008 130.593 124.696 131.077C124.4 131.561 124.002 131.951 123.503 132.247C123.019 132.544 122.465 132.746 121.841 132.856C121.233 132.98 120.624 133.043 120.016 133.043C119.345 133.043 118.705 132.973 118.097 132.832C117.488 132.692 116.95 132.466 116.482 132.154C116.014 131.826 115.639 131.405 115.358 130.89C115.078 130.359 114.921 129.72 114.89 128.971H116.88ZM128.815 126.747C128.815 127.481 128.909 128.136 129.096 128.713C129.299 129.275 129.572 129.751 129.915 130.141C130.259 130.515 130.656 130.804 131.109 131.007C131.577 131.21 132.068 131.311 132.583 131.311C133.098 131.311 133.582 131.21 134.034 131.007C134.502 130.804 134.908 130.515 135.251 130.141C135.595 129.751 135.86 129.275 136.047 128.713C136.25 128.136 136.351 127.481 136.351 126.747C136.351 126.014 136.25 125.366 136.047 124.805C135.86 124.228 135.595 123.744 135.251 123.354C134.908 122.964 134.502 122.667 134.034 122.464C133.582 122.262 133.098 122.16 132.583 122.16C132.068 122.16 131.577 122.262 131.109 122.464C130.656 122.667 130.259 122.964 129.915 123.354C129.572 123.744 129.299 124.228 129.096 124.805C128.909 125.366 128.815 126.014 128.815 126.747ZM126.709 126.747C126.709 125.858 126.834 125.031 127.084 124.267C127.333 123.486 127.708 122.815 128.207 122.254C128.706 121.677 129.322 121.224 130.056 120.896C130.789 120.569 131.632 120.405 132.583 120.405C133.551 120.405 134.393 120.569 135.111 120.896C135.844 121.224 136.461 121.677 136.96 122.254C137.459 122.815 137.834 123.486 138.083 124.267C138.333 125.031 138.458 125.858 138.458 126.747C138.458 127.637 138.333 128.464 138.083 129.228C137.834 129.993 137.459 130.663 136.96 131.241C136.461 131.802 135.844 132.247 135.111 132.575C134.393 132.887 133.551 133.043 132.583 133.043C131.632 133.043 130.789 132.887 130.056 132.575C129.322 132.247 128.706 131.802 128.207 131.241C127.708 130.663 127.333 129.993 127.084 129.228C126.834 128.464 126.709 127.637 126.709 126.747Z" fill="black"/>
<rect x="1.39247" y="1.39247" width="135.534" height="102.115" stroke="black" stroke-width="2.78495"/>
<path d="M28.0784 36.1601H34.3765L31.3126 27.2406H31.2445L28.0784 36.1601ZM28.5891 21.249H34.0701L43.1598 45.5562H37.6107L35.7723 40.1432H26.6827L24.7762 45.5562H19.3973L28.5891 21.249Z" fill="black"/>
<path d="M61.4198 21.249H66.7647V41.0624H78.6119V45.5562H61.4198V21.249Z" fill="black"/>
<path d="M100.457 33.5047C100.457 34.526 100.57 35.5246 100.797 36.5005C101.047 37.4538 101.433 38.3162 101.955 39.0879C102.477 39.8595 103.158 40.4836 103.997 40.9603C104.837 41.4142 105.858 41.6411 107.061 41.6411C108.264 41.6411 109.286 41.4142 110.125 40.9603C110.965 40.4836 111.646 39.8595 112.168 39.0879C112.69 38.3162 113.064 37.4538 113.291 36.5005C113.541 35.5246 113.666 34.526 113.666 33.5047C113.666 32.438 113.541 31.4053 113.291 30.4067C113.064 29.4081 112.69 28.523 112.168 27.7513C111.646 26.9569 110.965 26.3328 110.125 25.8789C109.286 25.4023 108.264 25.164 107.061 25.164C105.858 25.164 104.837 25.4023 103.997 25.8789C103.158 26.3328 102.477 26.9569 101.955 27.7513C101.433 28.523 101.047 29.4081 100.797 30.4067C100.57 31.4053 100.457 32.438 100.457 33.5047ZM95.112 33.5047C95.112 31.689 95.3844 30.0095 95.9291 28.4662C96.4738 26.9002 97.2568 25.5385 98.2781 24.381C99.2994 23.2235 100.548 22.3157 102.023 21.6575C103.521 20.9993 105.2 20.6702 107.061 20.6702C108.945 20.6702 110.625 20.9993 112.1 21.6575C113.575 22.3157 114.823 23.2235 115.845 24.381C116.866 25.5385 117.649 26.9002 118.194 28.4662C118.738 30.0095 119.011 31.689 119.011 33.5047C119.011 35.275 118.738 36.9317 118.194 38.4751C117.649 39.9957 116.866 41.3234 115.845 42.4582C114.823 43.593 113.575 44.4894 112.1 45.1476C110.625 45.7831 108.945 46.1009 107.061 46.1009C105.2 46.1009 103.521 45.7831 102.023 45.1476C100.548 44.4894 99.2994 43.593 98.2781 42.4582C97.2568 41.3234 96.4738 39.9957 95.9291 38.4751C95.3844 36.9317 95.112 35.275 95.112 33.5047Z" fill="black"/>
<path d="M63.3862 78.5527C63.3862 79.3698 63.5337 80.062 63.8288 80.6294C64.1238 81.1968 64.5097 81.6621 64.9863 82.0252C65.4856 82.3656 66.0643 82.6266 66.7225 82.8082C67.3807 82.9671 68.0616 83.0465 68.7651 83.0465C69.2417 83.0465 69.7524 83.0125 70.2971 82.9444C70.8418 82.8536 71.3524 82.6947 71.8291 82.4678C72.3057 82.2408 72.7028 81.9344 73.0206 81.5486C73.3383 81.1401 73.4972 80.6294 73.4972 80.0166C73.4972 79.3584 73.2816 78.8251 72.8504 78.4166C72.4418 78.008 71.8971 77.6676 71.2163 77.3953C70.5354 77.1229 69.7637 76.8846 68.9013 76.6803C68.0389 76.4761 67.1651 76.2491 66.2799 75.9995C65.3721 75.7725 64.487 75.5002 63.6245 75.1824C62.7621 74.842 61.9904 74.4108 61.3096 73.8888C60.6287 73.3667 60.0726 72.7199 59.6414 71.9483C59.2329 71.1539 59.0286 70.2007 59.0286 69.0886C59.0286 67.8403 59.2896 66.7623 59.8116 65.8544C60.3563 64.9239 61.0599 64.1523 61.9223 63.5395C62.7848 62.9267 63.7607 62.4728 64.8501 62.1777C65.9395 61.8827 67.0289 61.7352 68.1183 61.7352C69.3893 61.7352 70.6035 61.8827 71.761 62.1777C72.9412 62.4501 73.9852 62.904 74.893 63.5395C75.8008 64.175 76.5157 64.992 77.0377 65.9906C77.5824 66.9665 77.8548 68.1581 77.8548 69.5652H72.6802C72.6348 68.8389 72.4759 68.2375 72.2035 67.7609C71.9539 67.2843 71.6134 66.9098 71.1822 66.6374C70.751 66.3651 70.2517 66.1722 69.6843 66.0587C69.1396 65.9452 68.5382 65.8885 67.88 65.8885C67.4488 65.8885 67.0175 65.9339 66.5863 66.0247C66.1551 66.1154 65.7579 66.2743 65.3948 66.5013C65.0544 66.7282 64.7707 67.0119 64.5437 67.3524C64.3167 67.6928 64.2033 68.124 64.2033 68.646C64.2033 69.1226 64.2941 69.5085 64.4756 69.8035C64.6572 70.0986 65.009 70.3709 65.531 70.6206C66.0757 70.8702 66.8133 71.1199 67.7438 71.3695C68.697 71.6192 69.934 71.9369 71.4546 72.3227C71.9085 72.4135 72.5326 72.5837 73.327 72.8334C74.144 73.0604 74.9497 73.4348 75.7441 73.9568C76.5384 74.4788 77.2193 75.1824 77.7867 76.0675C78.3768 76.93 78.6718 78.0421 78.6718 79.4038C78.6718 80.5159 78.4562 81.5486 78.025 82.5018C77.5938 83.455 76.947 84.2834 76.0845 84.987C75.2448 85.6679 74.1894 86.2012 72.9185 86.5871C71.6702 86.9729 70.2177 87.1658 68.5609 87.1658C67.2218 87.1658 65.9168 86.9956 64.6458 86.6551C63.3976 86.3374 62.2855 85.8267 61.3096 85.1232C60.3563 84.4196 59.596 83.5231 59.0286 82.4337C58.4612 81.3443 58.1889 80.0507 58.2116 78.5527H63.3862Z" fill="black"/>
<path d="M21.1127 62.3139H26.4235L36.5685 78.6208H36.6366V62.3139H41.641V86.6211H36.2962L26.1852 70.3482H26.1171V86.6211H21.1127V62.3139Z" fill="black"/>
<path d="M100.457 74.5696C100.457 75.5909 100.57 76.5896 100.797 77.5655C101.047 78.5187 101.433 79.3811 101.955 80.1528C102.477 80.9244 103.158 81.5486 103.997 82.0252C104.837 82.4791 105.858 82.7061 107.061 82.7061C108.264 82.7061 109.286 82.4791 110.125 82.0252C110.965 81.5486 111.646 80.9244 112.168 80.1528C112.69 79.3811 113.064 78.5187 113.291 77.5655C113.541 76.5896 113.666 75.5909 113.666 74.5696C113.666 73.5029 113.541 72.4703 113.291 71.4716C113.064 70.473 112.69 69.5879 112.168 68.8162C111.646 68.0219 110.965 67.3978 110.125 66.9438C109.286 66.4672 108.264 66.2289 107.061 66.2289C105.858 66.2289 104.837 66.4672 103.997 66.9438C103.158 67.3978 102.477 68.0219 101.955 68.8162C101.433 69.5879 101.047 70.473 100.797 71.4716C100.57 72.4703 100.457 73.5029 100.457 74.5696ZM95.112 74.5696C95.112 72.754 95.3844 71.0745 95.9291 69.5312C96.4738 67.9651 97.2568 66.6034 98.2781 65.4459C99.2994 64.2884 100.548 63.3806 102.023 62.7224C103.521 62.0642 105.2 61.7352 107.061 61.7352C108.945 61.7352 110.625 62.0642 112.1 62.7224C113.575 63.3806 114.823 64.2884 115.845 65.4459C116.866 66.6034 117.649 67.9651 118.194 69.5312C118.738 71.0745 119.011 72.754 119.011 74.5696C119.011 76.3399 118.738 77.9967 118.194 79.54C117.649 81.0606 116.866 82.3883 115.845 83.5231C114.823 84.6579 113.575 85.5544 112.1 86.2126C110.625 86.8481 108.945 87.1658 107.061 87.1658C105.2 87.1658 103.521 86.8481 102.023 86.2126C100.548 85.5544 99.2994 84.6579 98.2781 83.5231C97.2568 82.3883 96.4738 81.0606 95.9291 79.54C95.3844 77.9967 95.112 76.3399 95.112 74.5696Z" fill="black"/>
</svg>
